<svg width="193" height="278" viewBox="0 0 193 278" fill="none" xmlns="http://www.w3.org/2000/svg">
<path d="M162.68 253.237L158.212 254.284C157.396 253.345 156.732 252.314 156.465 251.061C156.39 250.707 156.365 250.343 156.315 249.981C156.076 251.652 156.284 253.179 156.865 254.598L155.291 254.967C155.08 254.536 154.93 254.067 154.843 253.559C154.766 253.111 154.699 252.658 154.564 252.227C154.455 251.874 154.291 251.52 154.078 251.221C153.926 251.007 153.651 250.879 153.429 250.713C153.408 250.738 153.387 250.765 153.364 250.791C153.46 251.414 153.591 252.036 153.645 252.665C153.699 253.297 153.674 253.934 153.681 254.546C152.483 254.2 151.348 252.644 151.384 251.179C151.404 250.433 151.583 249.69 151.704 248.948C151.767 248.555 151.881 248.17 151.94 247.776C152.129 246.506 152.05 245.313 150.85 244.419C151.99 244.334 152.918 244.66 153.635 245.469C154.353 246.28 154.518 247.253 154.28 248.338C155.413 247.218 155.451 245.303 154.383 244.195C154.039 243.837 153.651 243.521 153.283 243.185C152.567 242.528 151.944 241.796 151.565 240.889C151.038 239.628 151.142 238.442 152.029 237.367C152.096 237.286 152.177 237.216 152.287 237.104C152.287 237.512 152.271 237.865 152.289 238.215C152.321 238.848 152.494 239.439 152.885 239.949C153.331 240.532 153.924 240.565 154.383 239.989C154.607 239.711 154.786 239.375 154.907 239.037C155.822 236.477 154.961 233.733 152.721 232.02C152.625 231.947 152.529 231.874 152.448 231.742C152.544 231.765 152.646 231.773 152.735 231.816C153.443 232.15 154.197 232.414 154.843 232.845C156.904 234.216 157.525 236.239 157.242 238.607C157.15 239.375 156.955 240.132 156.844 240.899C156.759 241.486 156.805 242.074 157.071 242.623C157.279 243.052 157.565 243.409 158.085 243.415C158.618 243.42 158.922 243.075 159.127 242.623C159.452 241.905 159.349 241.416 158.733 240.771C159.075 240.663 159.626 240.846 159.966 241.19C160.362 241.588 160.514 242.09 160.555 242.634C160.609 243.368 160.362 244.027 160.07 244.681C159.61 245.712 159.108 246.732 158.752 247.798C158.385 248.9 158.466 250.022 159.195 250.997C159.402 251.275 159.703 251.486 160.008 251.694C159.708 250.696 159.689 249.746 160.158 248.825C160.372 248.408 160.659 248.047 161.078 247.815C161.103 247.844 161.13 247.861 161.128 247.875C160.989 249.008 161.343 250.022 161.892 250.982C162.28 251.665 162.705 252.328 163.082 253.019C163.102 253.055 162.657 253.2 162.677 253.239L162.68 253.237Z" fill="#FE5200"/>
<path d="M166.22 204.199L161.751 205.246C160.936 204.307 160.272 203.276 160.005 202.023C159.93 201.67 159.905 201.305 159.855 200.944C159.616 202.614 159.824 204.141 160.405 205.561L158.831 205.929C158.62 205.499 158.469 205.03 158.383 204.522C158.306 204.074 158.239 203.62 158.104 203.189C157.994 202.836 157.831 202.483 157.617 202.183C157.465 201.969 157.19 201.842 156.969 201.676C156.948 201.701 156.927 201.728 156.904 201.753C157 202.376 157.131 202.998 157.184 203.628C157.238 204.259 157.213 204.896 157.221 205.508C156.023 205.163 154.888 203.606 154.924 202.141C154.943 201.396 155.122 200.652 155.243 199.911C155.307 199.517 155.42 199.133 155.48 198.739C155.669 197.468 155.59 196.275 154.389 195.381C155.53 195.296 156.457 195.622 157.175 196.431C157.892 197.242 158.058 198.215 157.819 199.301C158.952 198.181 158.991 196.265 157.923 195.157C157.579 194.8 157.19 194.483 156.823 194.147C156.107 193.491 155.484 192.759 155.105 191.851C154.578 190.59 154.682 189.405 155.569 188.329C155.636 188.248 155.717 188.179 155.826 188.067C155.826 188.474 155.811 188.827 155.828 189.177C155.861 189.81 156.034 190.401 156.425 190.911C156.871 191.494 157.463 191.527 157.923 190.951C158.146 190.673 158.325 190.337 158.446 189.999C159.362 187.439 158.5 184.695 156.261 182.983C156.165 182.909 156.069 182.836 155.988 182.705C156.084 182.728 156.186 182.735 156.275 182.778C156.982 183.112 157.737 183.377 158.383 183.807C160.443 185.178 161.065 187.202 160.782 189.569C160.689 190.337 160.495 191.094 160.384 191.861C160.299 192.448 160.345 193.037 160.611 193.585C160.818 194.014 161.105 194.371 161.624 194.377C162.157 194.383 162.461 194.037 162.667 193.585C162.992 192.867 162.888 192.378 162.273 191.733C162.615 191.625 163.165 191.809 163.506 192.152C163.902 192.55 164.054 193.052 164.094 193.597C164.148 194.33 163.902 194.989 163.61 195.643C163.15 196.675 162.648 197.694 162.292 198.76C161.924 199.862 162.005 200.984 162.734 201.959C162.942 202.237 163.242 202.448 163.548 202.656C163.248 201.658 163.229 200.708 163.698 199.787C163.912 199.37 164.198 199.009 164.618 198.777C164.643 198.806 164.67 198.824 164.668 198.837C164.529 199.971 164.883 200.984 165.431 201.944C165.82 202.628 166.245 203.29 166.622 203.981C166.641 204.018 166.197 204.163 166.216 204.201L166.22 204.199Z" fill="#FE5200"/>
<path d="M15.0203 202.302C24.0117 202.302 30.0406 206.595 30.0406 215.508C30.0406 224.421 24.0098 228.715 15.0203 228.715C6.03083 228.715 0 224.423 0 215.508C0 206.593 5.99428 202.302 15.0203 202.302ZM24.4869 224.826C24.8524 224.826 25.1083 224.753 25.3276 224.569C26.6434 223.395 23.4635 219.14 17.1768 213.6C11.8404 208.904 7.52748 206.189 5.55375 206.189C5.18824 206.189 4.89584 206.263 4.71309 206.446C3.36072 207.62 6.54061 211.876 12.8273 217.415C18.2002 222.111 22.4766 224.826 24.485 224.826H24.4869Z" fill="#0985C3"/>
<path d="M31.5027 228.201C34.8653 227.394 34.646 218.736 34.646 216.241C34.646 213.747 35.1212 203.66 31.5027 202.816V202.669L44.3665 199.221L44.6589 199.367C44.0376 200.688 44.1472 206.595 44.1472 208.172V216.243C44.1472 218.738 43.9279 227.396 47.2906 228.203V228.35H31.5027V228.203V228.201Z" fill="#0985C3"/>
<path d="M52.6269 228.715H52.7731C54.3082 230.146 56.684 230.769 58.7674 230.769C60.4487 230.769 62.9341 230.329 63.3362 228.348H56.1358C55.7337 227.101 55.4778 225.817 55.0758 224.606C54.2351 221.965 53.2117 219.433 52.1152 216.902C51.2014 214.774 48.6795 207.363 46.194 206.813V206.703H61.4337V206.813C60.0082 207.106 59.6427 208.574 59.6427 209.821C59.6427 213.527 63.0784 220.534 64.7598 224.09C65.7466 221.045 66.5142 218.037 66.5142 214.809C66.5142 212.021 65.8563 207.691 62.6764 206.811V206.701H75.5037V206.811C72.6893 207.618 67.2798 222.107 66.2564 224.822L63.4786 232.16C62.3089 235.205 59.787 237.002 56.4974 237.002C54.414 237.002 52.3672 236.305 50.5762 235.278L52.6231 228.711L52.6269 228.715Z" fill="#0985C3"/>
<path d="M74.7726 228.201C77.8429 227.431 77.916 221.194 77.916 218.81C77.916 216.425 77.8794 210.738 74.7726 210.005V209.858L87.6365 206.409L87.9289 206.556C87.4172 207.73 87.4172 210.959 87.4172 212.279C89.3178 208.464 92.0956 206.409 96.4086 206.409C100.722 206.409 103.061 208.354 103.573 212.61C105.473 208.647 108.251 206.409 112.747 206.409C117.973 206.409 120.02 209.418 120.02 214.407C120.02 216.792 120.057 227.429 123.164 228.199V228.346H107.376V228.199C110.227 227.502 110.519 222.293 110.519 219.982C110.519 217.67 110.885 211.544 107.303 211.544C105.621 211.544 104.561 212.534 103.684 213.892C103.684 216.35 103.611 227.39 106.827 228.198V228.344H91.0395V228.198C93.8905 227.501 94.1829 222.291 94.1829 219.98C94.1829 217.668 94.5484 211.542 90.9664 211.542C89.3217 211.542 88.2982 212.496 87.421 213.816V216.348C87.421 218.842 87.2017 227.39 90.5644 228.198V228.344H74.7765V228.198L74.7726 228.201Z" fill="#0985C3"/>
<path d="M123.525 235.392C126.888 234.585 126.669 225.927 126.669 223.432C126.669 220.937 127.144 210.85 123.525 210.007V209.86L136.389 206.411L136.681 206.558C136.206 207.549 136.17 210.227 136.17 211.327C137.486 208.136 140.117 206.411 143.589 206.411C148.597 206.411 152.508 209.787 152.508 214.959C152.508 222.113 145.746 226.956 139.059 226.956C138.109 226.956 137.159 226.846 136.245 226.663C136.318 228.864 136.501 234.697 139.315 235.394V235.541H123.527V235.394L123.525 235.392ZM136.17 220.609C136.499 222.884 139.24 226.149 141.689 226.149C143.699 226.149 144.357 224.241 144.357 222.554C144.357 219.325 141.214 211.219 137.486 211.219C136.937 211.219 136.426 211.513 136.17 212.026V214.448C136.17 216.025 135.987 219.217 136.17 220.611V220.609Z" fill="#0985C3"/>
<path d="M153.604 228.201C156.675 227.431 156.748 221.194 156.748 218.81C156.748 216.425 156.711 210.738 153.604 210.005V209.858L166.468 206.409L166.761 206.556C166.212 207.767 166.249 211.619 166.249 213.013C166.249 215.911 165.554 227.246 169.392 228.199V228.346H153.604V228.199V228.201Z" fill="#0985C3"/>
<path d="M187.41 219.58C185.875 214.664 181.086 209.821 175.64 209.821C174.617 209.821 173.521 210.005 173.521 211.215C173.521 212.353 174.325 213.71 174.946 214.627C177.76 218.773 183.462 223.249 188.65 223.249C190.113 223.249 191.903 222.882 192.781 221.598H192.927C191.794 226.697 186.64 228.715 181.927 228.715C174.836 228.715 170.121 224.863 170.121 217.526C170.121 210.188 174.983 206.336 182.108 206.336C186.494 206.336 190.734 207.84 193 211.802L187.554 219.58H187.408H187.41Z" fill="#0985C3"/>
<path d="M26.0585 265.409H38.8858V265.555C37.0949 266.216 37.0583 272.893 37.0583 274.544C37.0583 275.497 37.0949 276.415 37.1314 277.369H36.6197C36.437 275.901 36.0349 274.434 35.377 273.113C32.8185 276.635 28.9807 277.735 24.7774 277.735C16.6266 277.735 9.57428 273.406 9.57428 264.528C9.57428 255.65 15.532 251.69 23.6077 251.69C26.4221 251.69 29.2 252.313 32.0143 252.313C32.6357 252.313 34.0977 252.313 34.4632 251.653H34.6094L35.8521 264.822H35.7059C33.9881 260.896 21.0146 254.366 16.7382 254.366C15.3493 254.366 14.472 254.879 14.472 256.347C14.472 259.612 18.054 264.308 20.3567 266.399C23.4269 269.224 28.215 271.535 32.4549 271.535C33.0762 271.535 33.661 271.499 34.2824 271.352C32.4549 268.82 29.0922 266.362 26.0585 265.555V265.409Z" fill="#0985C3"/>
<path d="M42.3928 258.842C46.4133 255.907 51.2745 255.32 55.2951 255.32C63.4824 255.32 66.1871 257.741 66.1871 265.262C66.1871 273.223 67.9416 274.58 70.6463 274.36V274.507C68.965 275.864 65.7851 277.735 63.1169 277.735C59.9736 277.735 57.1592 276.818 56.7206 274.287C55.9165 275.314 53.3945 277.919 48.7891 277.919C43.9279 277.919 40.3459 274.947 40.3459 271.058C40.3459 268.05 42.4659 265.482 45.7554 263.868L42.3928 258.842ZM53.8331 262.143C54.893 262.143 55.8434 262.217 56.684 262.364C56.6475 258.511 56.3916 255.98 54.162 255.98C51.5669 256.017 47.3271 259.392 46.5961 263.501C48.6795 262.657 51.1649 262.143 53.8331 262.143ZM56.684 268.05C56.5744 264.932 53.7965 262.987 51.5669 262.987C51.2014 262.987 50.8359 263.024 50.507 263.134C47.8753 264.014 48.314 268.307 50.6166 271.462C52.0056 273.443 53.7234 274.397 55.1123 274.397C55.6971 274.397 56.2454 274.213 56.684 273.92V268.05Z" fill="#0985C3"/>
<path d="M72.1045 277.22C75.1747 276.449 75.2478 270.213 75.2478 267.828C75.2478 265.443 75.2113 259.757 72.1045 259.023V258.876L84.9683 255.428L85.2607 255.575C84.749 256.749 84.749 259.977 84.749 261.298C86.6497 257.482 89.4275 255.428 93.7405 255.428C98.0534 255.428 100.393 257.372 100.904 261.628C102.805 257.666 105.583 255.428 110.079 255.428C115.305 255.428 117.352 258.436 117.352 263.426C117.352 265.81 117.389 276.448 120.495 277.218V277.365H104.708V277.218C107.558 276.521 107.851 271.311 107.851 269C107.851 266.689 108.216 260.562 104.634 260.562C102.953 260.562 101.893 261.553 101.016 262.91C101.016 265.368 100.943 276.409 104.159 277.216V277.363H88.3714V277.216C91.2223 276.519 91.5147 271.309 91.5147 268.998C91.5147 266.687 91.8802 260.56 88.2983 260.56C86.6535 260.56 85.6301 261.514 84.7529 262.835V265.366C84.7529 267.861 84.5336 276.409 87.8962 277.216V277.363H72.1083V277.216L72.1045 277.22Z" fill="#0985C3"/>
<path d="M123.123 274.615L123.087 268.378V265.26C123.087 262.692 123.562 252.678 119.943 251.834V251.688L132.807 248.239L133.1 248.386C132.442 249.78 132.588 256.494 132.588 258.145V260.529C134.233 257.594 136.974 255.356 140.483 255.356C145.783 255.356 148.926 260.126 148.926 265.078C148.926 272.563 142.603 277.735 135.441 277.735C132.699 277.735 129.885 276.965 127.948 274.911L123.269 277.735H123.123V274.617V274.615ZM132.59 269.332C132.59 272.12 134.71 277 138.036 277C140.265 277 140.704 274.248 140.704 272.524C140.704 269.259 138.255 260.236 134.161 260.236C133.54 260.236 132.992 260.566 132.59 261.006V269.334V269.332Z" fill="#0985C3"/>
<path d="M150.022 277.22C153.093 276.449 153.166 270.213 153.166 267.828C153.166 265.443 153.129 259.757 150.022 259.023V258.876L162.886 255.428L163.179 255.575C162.63 256.785 162.667 260.637 162.667 262.032C162.667 264.93 161.973 276.264 165.81 277.218V277.365H150.022V277.218V277.22Z" fill="#0985C3"/>
<path d="M183.426 274.505C181.488 276.083 178.418 277.733 175.896 277.733C172.132 277.733 169.463 275.862 169.463 271.864V265.26C169.463 263.903 169.756 256.859 168.257 256.088H166.686V255.354L179.22 249.851L179.513 249.998C178.965 251.099 178.965 254.144 178.965 255.354H183.131V256.088H178.965V265.26C178.965 268.085 178.818 274.395 182.912 274.395L183.424 274.358V274.505H183.426Z" fill="#0985C3"/>
<path d="M137.347 92.8584C136.503 98.2822 133.596 102.634 130.37 106.892C128.296 109.632 126.172 112.345 124.087 115.085C121.071 119.045 118.135 123.061 115.542 127.284C111.012 134.67 109.709 142.942 113.351 151.274C114.234 153.299 115.688 155.074 117.26 156.813L97.9995 168.047C95.1063 161.472 93.2557 154.572 93.398 147.091C93.45 144.392 93.8809 141.698 94.1348 139.005C90.7452 147.725 89.2851 156.29 89.5102 164.763C85.4781 162.243 81.5384 159.611 77.7063 156.858C77.7506 155.344 77.7448 153.83 77.6371 152.33C77.437 149.576 76.8464 146.738 75.7999 144.197C75.0535 142.38 73.2722 140.992 71.9525 139.412C71.7524 139.563 71.5524 139.711 71.3542 139.862C71.0638 143.722 70.9464 147.609 70.5347 151.453L56.4089 139.01C57.8209 133.739 60.3198 128.744 62.4109 123.658C63.5382 120.912 65.0175 118.307 66.1083 115.546C66.1698 115.392 66.2275 115.239 66.2891 115.085C69.6691 106.338 70.9368 97.6933 63.8633 89.319C72.2853 90.6398 78.4777 94.5846 82.3194 101.688C84.6875 106.07 85.4242 110.545 84.8067 115.087C84.4239 117.91 83.5159 120.758 82.152 123.623C85.5955 121.511 88.2752 118.512 90.0758 115.087C93.5692 108.452 93.777 100.217 89.8988 93.7099C88.0001 90.5239 85.7147 87.5716 83.6179 84.5034C79.5262 78.5177 76.2462 72.1477 75.0247 64.9126C73.3241 54.8604 76.0769 46.434 84.3335 40.1258C84.9587 39.6489 85.6609 39.2781 86.6439 38.6583C85.9533 41.6164 85.253 44.1517 84.7875 46.7256C83.9507 51.3771 84.2142 55.9572 86.1841 60.3287C88.4406 65.3258 92.6843 66.5674 97.0031 63.1748C99.0961 61.5297 100.962 59.3999 102.411 57.1524C113.382 40.1219 111.754 18.7277 98.392 2.48119C97.8187 1.78221 97.2435 1.08516 96.878 0C97.534 0.334044 98.265 0.567681 98.8306 1.01565C103.401 4.64765 108.436 7.85486 112.4 12.0719C125.051 25.5244 126.138 41.2766 120.093 57.9827C118.127 63.4104 115.436 68.5678 113.335 73.953C111.727 78.0755 111.065 82.4219 112.075 86.8514C112.86 90.3154 114.336 93.4009 118.093 94.3278C121.95 95.2778 124.747 93.287 126.999 90.3501C130.576 85.6948 130.641 81.9546 127.267 76.2315C129.933 76.0287 133.619 78.2975 135.508 81.3638C137.709 84.9301 137.974 88.8228 137.343 92.8564L137.347 92.8584Z" fill="#FE5200"/>
<path d="M132.678 131.891C130.966 136.581 130.553 141.258 130.98 145.921C126.824 149.553 122.496 152.996 118.016 156.265C117.785 149.092 119.374 142.65 124.023 137.139C126.274 134.473 128.975 132.345 132.413 131.366C132.547 131.621 132.715 131.793 132.678 131.889V131.891Z" fill="#FE5200"/>
<path d="M183.632 120.961C178.514 129.497 172.853 137.439 166.687 144.828C158.119 155.093 148.574 164.292 138.167 172.533C138.088 172.6 138.007 172.662 137.928 172.722C137.613 172.975 137.297 173.222 136.982 173.467C126.163 181.909 114.428 189.337 101.901 195.873C99.6404 197.053 95.7238 197.076 93.4615 195.91C80.8342 189.405 69.0419 181.955 58.1826 173.467C48.5294 165.921 39.613 157.557 31.5046 148.296C24.4734 140.269 18.0463 131.571 12.2713 122.156C11.5307 120.947 10.8805 119.682 10.2149 118.431C8.49892 115.212 42.3331 100.673 46.019 100.505C48.843 100.375 38.5126 106.564 42.4543 106.564C47.9446 104.934 42.0157 109.812 39.2917 115.085C38.8743 115.89 38.5357 116.703 38.3203 117.504C37.9028 119.057 37.9625 120.561 38.8743 121.86C43.9798 129.144 49.6644 135.811 55.8222 141.953C60.3429 146.462 65.1195 150.688 70.1153 154.668C72.5411 156.603 75.0189 158.476 77.5428 160.295C81.4921 163.145 85.557 165.861 89.7199 168.46C91.0299 169.277 92.3515 170.084 93.6808 170.88C95.1178 171.741 97.5821 171.915 99.627 171.494C100.452 171.324 101.21 171.057 101.805 170.7C112.385 164.359 122.321 157.277 131.428 149.273C141.497 140.43 150.549 130.464 158.333 119.14C158.927 118.275 158.583 117.286 157.696 116.243C157.371 115.863 156.975 115.473 156.523 115.083C152.113 111.248 142.605 107.07 146.206 105.82C149.247 104.764 138.118 100.451 141.352 100.505C148.462 100.624 187.415 114.647 183.633 120.962L183.632 120.961Z" fill="#0985C3"/>
</svg>
