<svg width="265" height="380" viewBox="0 0 265 380" fill="none" xmlns="http://www.w3.org/2000/svg">
<path d="M223.369 346.177L217.234 347.611C216.114 346.325 215.202 344.912 214.835 343.194C214.732 342.71 214.698 342.21 214.629 341.715C214.302 344.004 214.587 346.097 215.385 348.042L213.224 348.547C212.933 347.957 212.727 347.314 212.609 346.618C212.503 346.005 212.41 345.383 212.226 344.793C212.075 344.308 211.85 343.824 211.557 343.414C211.349 343.12 210.971 342.946 210.667 342.718C210.638 342.753 210.609 342.79 210.577 342.824C210.709 343.679 210.889 344.531 210.963 345.393C211.037 346.259 211.003 347.132 211.013 347.971C209.368 347.497 207.809 345.364 207.859 343.356C207.886 342.335 208.131 341.316 208.298 340.3C208.385 339.76 208.541 339.233 208.623 338.694C208.882 336.952 208.773 335.317 207.125 334.092C208.691 333.976 209.965 334.423 210.95 335.532C211.935 336.643 212.162 337.977 211.835 339.464C213.39 337.929 213.443 335.304 211.977 333.785C211.504 333.296 210.971 332.862 210.466 332.401C209.484 331.502 208.628 330.499 208.108 329.255C207.384 327.527 207.527 325.903 208.744 324.429C208.837 324.318 208.948 324.222 209.098 324.069C209.098 324.627 209.077 325.112 209.101 325.59C209.146 326.458 209.383 327.268 209.92 327.967C210.532 328.766 211.346 328.811 211.977 328.022C212.284 327.641 212.529 327.181 212.696 326.718C213.953 323.209 212.77 319.449 209.695 317.102C209.563 317.001 209.431 316.901 209.32 316.721C209.452 316.753 209.592 316.763 209.714 316.821C210.686 317.279 211.721 317.642 212.609 318.232C215.437 320.111 216.291 322.884 215.902 326.128C215.776 327.181 215.509 328.218 215.356 329.268C215.239 330.073 215.303 330.88 215.667 331.631C215.953 332.219 216.346 332.708 217.059 332.716C217.791 332.724 218.208 332.251 218.491 331.631C218.937 330.647 218.795 329.978 217.949 329.094C218.42 328.946 219.175 329.197 219.642 329.668C220.187 330.213 220.395 330.901 220.451 331.647C220.525 332.653 220.187 333.555 219.785 334.452C219.154 335.865 218.464 337.262 217.976 338.723C217.471 340.234 217.582 341.771 218.583 343.107C218.869 343.488 219.281 343.777 219.701 344.062C219.289 342.694 219.262 341.393 219.907 340.13C220.2 339.559 220.593 339.064 221.169 338.747C221.204 338.786 221.241 338.81 221.238 338.829C221.048 340.382 221.534 341.771 222.286 343.086C222.82 344.023 223.404 344.93 223.921 345.878C223.948 345.928 223.338 346.126 223.364 346.179L223.369 346.177Z" fill="#FE5200"/>
<path d="M228.23 279.828L222.094 281.263C220.974 279.977 220.063 278.564 219.695 276.846C219.592 276.362 219.558 275.862 219.489 275.367C219.162 277.656 219.447 279.749 220.245 281.694L218.084 282.199C217.794 281.609 217.588 280.966 217.469 280.27C217.363 279.656 217.271 279.035 217.086 278.445C216.935 277.96 216.711 277.476 216.417 277.066C216.209 276.772 215.831 276.598 215.527 276.37C215.498 276.404 215.469 276.442 215.437 276.476C215.57 277.331 215.749 278.183 215.823 279.045C215.897 279.91 215.863 280.784 215.873 281.622C214.228 281.149 212.669 279.016 212.72 277.008C212.746 275.986 212.992 274.968 213.158 273.952C213.245 273.412 213.401 272.885 213.483 272.345C213.742 270.604 213.633 268.969 211.985 267.744C213.552 267.628 214.825 268.075 215.81 269.183C216.795 270.295 217.022 271.628 216.695 273.115C218.251 271.581 218.303 268.956 216.837 267.437C216.365 266.948 215.831 266.514 215.327 266.053C214.344 265.154 213.488 264.151 212.968 262.907C212.244 261.179 212.387 259.555 213.604 258.081C213.697 257.97 213.808 257.874 213.958 257.721C213.958 258.279 213.937 258.763 213.961 259.242C214.006 260.11 214.244 260.92 214.78 261.618C215.393 262.418 216.206 262.463 216.837 261.674C217.144 261.293 217.389 260.833 217.556 260.37C218.813 256.861 217.63 253.101 214.555 250.754C214.423 250.653 214.291 250.553 214.18 250.373C214.312 250.405 214.452 250.415 214.574 250.473C215.546 250.931 216.581 251.294 217.469 251.884C220.298 253.762 221.151 256.535 220.762 259.779C220.636 260.833 220.369 261.87 220.216 262.92C220.099 263.725 220.163 264.532 220.527 265.283C220.813 265.871 221.206 266.36 221.919 266.368C222.651 266.376 223.068 265.902 223.351 265.283C223.797 264.299 223.655 263.629 222.81 262.746C223.28 262.597 224.035 262.849 224.503 263.32C225.047 263.865 225.255 264.553 225.311 265.299C225.385 266.305 225.047 267.207 224.645 268.104C224.014 269.517 223.325 270.914 222.836 272.375C222.331 273.885 222.442 275.423 223.443 276.759C223.729 277.14 224.141 277.429 224.561 277.714C224.149 276.346 224.122 275.044 224.767 273.782C225.06 273.211 225.454 272.716 226.029 272.398C226.064 272.438 226.101 272.462 226.098 272.48C225.908 274.034 226.394 275.423 227.147 276.738C227.68 277.675 228.264 278.582 228.782 279.529C228.808 279.58 228.198 279.778 228.224 279.831L228.23 279.828Z" fill="#FE5200"/>
<path d="M20.6238 277.229C32.9695 277.229 41.2475 283.111 41.2475 295.325C41.2475 307.54 32.9668 313.424 20.6238 313.424C8.28067 313.424 0 307.542 0 295.325C0 283.109 8.23049 277.229 20.6238 277.229ZM33.6219 308.095C34.1238 308.095 34.4751 307.995 34.7762 307.743C36.5829 306.135 32.2167 300.303 23.5847 292.711C16.2576 286.276 10.3357 282.556 7.62561 282.556C7.12375 282.556 6.72227 282.656 6.47134 282.908C4.61446 284.516 8.98063 290.348 17.6126 297.94C24.9899 304.375 30.8617 308.095 33.6193 308.095H33.6219Z" fill="#0985C3"/>
<path d="M43.2549 312.721C47.872 311.614 47.5709 299.75 47.5709 296.331C47.5709 292.912 48.2233 279.089 43.2549 277.933V277.732L60.9177 273.006L61.3192 273.207C60.4661 275.017 60.6166 283.111 60.6166 285.273V296.334C60.6166 299.752 60.3155 311.617 64.9326 312.723V312.924H43.2549V312.723V312.721Z" fill="#0985C3"/>
<path d="M72.2598 313.424H72.4605C74.5683 315.385 77.8304 316.24 80.691 316.24C82.9995 316.24 86.4122 315.636 86.9642 312.922H77.0776C76.5255 311.212 76.1742 309.453 75.6222 307.794C74.4679 304.174 73.0627 300.705 71.5571 297.236C70.3025 294.32 66.8397 284.165 63.427 283.41V283.26H84.3519V283.41C82.3947 283.813 81.8928 285.824 81.8928 287.533C81.8928 292.611 86.6103 302.213 88.9188 307.087C90.2738 302.914 91.3277 298.792 91.3277 294.368C91.3277 290.547 90.4244 284.614 86.0582 283.408V283.257H103.671V283.408C99.8065 284.514 92.379 304.37 90.9738 308.09L87.1597 318.145C85.5537 322.318 82.0909 324.781 77.5742 324.781C74.7136 324.781 71.9032 323.826 69.4441 322.418L72.2545 313.419L72.2598 313.424Z" fill="#0985C3"/>
<path d="M102.667 312.721C106.883 311.665 106.983 303.118 106.983 299.85C106.983 296.582 106.933 288.79 102.667 287.784V287.583L120.33 282.857L120.731 283.059C120.029 284.667 120.029 289.091 120.029 290.901C122.638 285.673 126.453 282.857 132.375 282.857C138.296 282.857 141.508 285.522 142.211 291.354C144.821 285.924 148.635 282.857 154.808 282.857C161.984 282.857 164.795 286.98 164.795 293.817C164.795 297.085 164.845 311.662 169.111 312.718V312.919H147.433V312.718C151.347 311.763 151.749 304.624 151.749 301.456C151.749 298.289 152.251 289.893 147.333 289.893C145.024 289.893 143.569 291.251 142.364 293.111C142.364 296.479 142.264 311.609 146.68 312.715V312.916H125.002V312.715C128.917 311.76 129.318 304.621 129.318 301.454C129.318 298.286 129.82 289.891 124.902 289.891C122.644 289.891 121.239 291.198 120.034 293.008V296.477C120.034 299.895 119.733 311.609 124.35 312.715V312.916H102.672V312.715L102.667 312.721Z" fill="#0985C3"/>
<path d="M169.607 322.574C174.224 321.468 173.923 309.604 173.923 306.185C173.923 302.766 174.576 288.943 169.607 287.787V287.586L187.27 282.86L187.671 283.061C187.019 284.419 186.969 288.089 186.969 289.597C188.776 285.223 192.389 282.86 197.157 282.86C204.032 282.86 209.402 287.485 209.402 294.574C209.402 304.378 200.118 311.014 190.936 311.014C189.631 311.014 188.327 310.863 187.072 310.612C187.172 313.628 187.423 321.622 191.287 322.577V322.778H169.61V322.577L169.607 322.574ZM186.969 302.316C187.421 305.433 191.184 309.908 194.547 309.908C197.307 309.908 198.21 307.294 198.21 304.981C198.21 300.557 193.895 289.449 188.776 289.449C188.023 289.449 187.32 289.851 186.969 290.555V293.873C186.969 296.035 186.718 300.409 186.969 302.319V302.316Z" fill="#0985C3"/>
<path d="M210.908 312.721C215.123 311.665 215.224 303.118 215.224 299.85C215.224 296.582 215.173 288.79 210.908 287.784V287.583L228.57 282.857L228.972 283.059C228.219 284.718 228.269 289.996 228.269 291.907C228.269 295.879 227.316 311.411 232.585 312.718V312.919H210.908V312.718V312.721Z" fill="#0985C3"/>
<path d="M257.324 300.906C255.216 294.169 248.642 287.533 241.164 287.533C239.759 287.533 238.254 287.784 238.254 289.443C238.254 291.002 239.358 292.862 240.211 294.119C244.075 299.8 251.904 305.933 259.028 305.933C261.035 305.933 263.494 305.431 264.699 303.671H264.9C263.344 310.659 256.268 313.424 249.796 313.424C240.06 313.424 233.586 308.146 233.586 298.091C233.586 288.036 240.261 282.757 250.045 282.757C256.067 282.757 261.889 284.818 265 290.248L257.522 300.906H257.322H257.324Z" fill="#0985C3"/>
<path d="M35.7799 362.856H53.3925V363.057C50.9334 363.962 50.8832 373.112 50.8832 375.375C50.8832 376.682 50.9334 377.939 50.9836 379.246H50.281C50.03 377.235 49.478 375.224 48.5746 373.414C45.0616 378.24 39.7921 379.749 34.0207 379.749C22.8293 379.749 13.1461 373.816 13.1461 361.65C13.1461 349.483 21.3264 344.056 32.4148 344.056C36.2791 344.056 40.0932 344.911 43.9576 344.911C44.8107 344.911 46.8181 344.911 47.32 344.006H47.5207L49.2271 362.052H49.0263C46.6676 356.673 28.8542 347.724 22.9825 347.724C21.0754 347.724 19.871 348.427 19.871 350.438C19.871 354.913 24.7892 361.348 27.9509 364.214C32.1665 368.085 38.7409 371.252 44.5624 371.252C45.4156 371.252 46.2186 371.202 47.0717 371.001C44.5624 367.532 39.9453 364.163 35.7799 363.057V362.856Z" fill="#0985C3"/>
<path d="M58.2077 353.857C63.7282 349.835 70.4029 349.031 75.9233 349.031C87.165 349.031 90.8787 352.349 90.8787 362.655C90.8787 373.565 93.2877 375.425 97.0014 375.123V375.325C94.6929 377.185 90.3267 379.749 86.6631 379.749C82.3471 379.749 78.4828 378.492 77.8806 375.023C76.7765 376.431 73.3137 380 66.9902 380C60.3155 380 55.3973 375.928 55.3973 370.599C55.3973 366.476 58.3081 362.957 62.8248 360.745L58.2077 353.857ZM73.9159 358.382C75.3713 358.382 76.6761 358.483 77.8304 358.684C77.7802 353.405 77.4289 349.936 74.3676 349.936C70.8044 349.986 64.9828 354.611 63.9791 360.242C66.8397 359.086 70.2523 358.382 73.9159 358.382ZM77.8304 366.476C77.6798 362.203 73.8657 359.538 70.8044 359.538C70.3025 359.538 69.8007 359.589 69.349 359.739C65.7356 360.946 66.3378 366.828 69.4995 371.152C71.4066 373.867 73.7653 375.174 75.6724 375.174C76.4754 375.174 77.2282 374.922 77.8304 374.52V366.476Z" fill="#0985C3"/>
<path d="M99.0035 379.042C103.219 377.986 103.32 369.44 103.32 366.172C103.32 362.904 103.269 355.111 99.0035 354.106V353.905L116.666 349.179L117.068 349.38C116.365 350.989 116.365 355.413 116.365 357.223C118.975 351.994 122.789 349.179 128.711 349.179C134.633 349.179 137.845 351.844 138.547 357.675C141.157 352.246 144.971 349.179 151.144 349.179C158.321 349.179 161.131 353.301 161.131 360.139C161.131 363.407 161.181 377.984 165.447 379.039V379.241H143.769V379.039C147.684 378.084 148.085 370.945 148.085 367.778C148.085 364.611 148.587 356.215 143.669 356.215C141.36 356.215 139.905 357.572 138.701 359.432C138.701 362.801 138.6 377.931 143.017 379.037V379.238H121.339V379.037C125.253 378.082 125.655 370.943 125.655 367.775C125.655 364.608 126.157 356.212 121.239 356.212C118.98 356.212 117.575 357.519 116.37 359.329V362.798C116.37 366.217 116.069 377.931 120.686 379.037V379.238H99.0088V379.037L99.0035 379.042Z" fill="#0985C3"/>
<path d="M169.055 375.473L169.005 366.926V362.653C169.005 359.133 169.657 345.411 164.689 344.255V344.054L182.352 339.328L182.753 339.529C181.85 341.439 182.051 350.64 182.051 352.902V356.17C184.309 352.148 188.073 349.081 192.891 349.081C200.168 349.081 204.484 355.617 204.484 362.404C204.484 372.66 195.802 379.749 185.968 379.749C182.204 379.749 178.34 378.693 175.68 375.878L169.256 379.749H169.055V375.475V375.473ZM182.053 368.233C182.053 372.054 184.964 378.741 189.531 378.741C192.592 378.741 193.195 374.97 193.195 372.607C193.195 368.133 189.832 355.768 184.211 355.768C183.358 355.768 182.605 356.22 182.053 356.823V368.236V368.233Z" fill="#0985C3"/>
<path d="M205.989 379.042C210.205 377.986 210.305 369.44 210.305 366.172C210.305 362.904 210.255 355.111 205.989 354.106V353.905L223.652 349.179L224.054 349.38C223.301 351.039 223.351 356.318 223.351 358.228C223.351 362.2 222.397 377.732 227.667 379.039V379.241H205.989V379.039V379.042Z" fill="#0985C3"/>
<path d="M251.854 375.322C249.194 377.484 244.978 379.746 241.516 379.746C236.346 379.746 232.683 377.182 232.683 371.702V362.653C232.683 360.792 233.084 351.14 231.027 350.084H228.869V349.078L246.08 341.537L246.481 341.738C245.729 343.247 245.729 347.419 245.729 349.078H251.45V350.084H245.729V362.653C245.729 366.524 245.528 375.171 251.149 375.171L251.851 375.121V375.322H251.854Z" fill="#0985C3"/>
<path d="M188.585 127.25C187.426 134.683 183.435 140.647 179.005 146.482C176.158 150.236 173.242 153.954 170.378 157.709C166.237 163.136 162.206 168.64 158.646 174.426C152.425 184.548 150.637 195.883 155.637 207.301C156.849 210.076 158.846 212.508 161.004 214.892L134.559 230.287C130.586 221.277 128.045 211.82 128.241 201.569C128.312 197.87 128.904 194.179 129.252 190.488C124.598 202.437 122.594 214.175 122.903 225.786C117.366 222.333 111.957 218.726 106.695 214.953C106.756 212.879 106.748 210.804 106.6 208.748C106.325 204.975 105.515 201.085 104.078 197.603C103.053 195.113 100.607 193.211 98.7949 191.046C98.5202 191.253 98.2455 191.456 97.9734 191.663C97.5746 196.952 97.4135 202.279 96.8482 207.547L77.4527 190.496C79.3915 183.272 82.8226 176.427 85.6937 169.457C87.2416 165.695 89.2728 162.125 90.7704 158.341C90.855 158.13 90.9342 157.921 91.0187 157.709C95.6596 145.722 97.4003 133.876 87.688 122.4C99.2519 124.21 107.754 129.616 113.029 139.351C116.281 145.355 117.292 151.488 116.444 157.711C115.919 161.58 114.672 165.483 112.799 169.41C117.527 166.515 121.207 162.406 123.679 157.711C128.476 148.62 128.761 137.334 123.436 128.417C120.829 124.051 117.691 120.006 114.812 115.801C109.194 107.598 104.69 98.869 103.013 88.9543C100.678 75.1791 104.458 63.6318 115.795 54.9872C116.653 54.3336 117.617 53.8256 118.967 52.9762C118.019 57.0299 117.057 60.5042 116.418 64.0313C115.269 70.4056 115.631 76.682 118.336 82.6726C121.434 89.5206 127.261 91.222 133.191 86.5729C136.065 84.3185 138.627 81.3999 140.616 78.3199C155.679 54.9819 153.445 25.6639 135.098 3.40015C134.311 2.44229 133.521 1.48707 133.019 0C133.92 0.457764 134.923 0.777934 135.7 1.39181C141.976 6.369 148.888 10.7641 154.332 16.543C171.702 34.9779 173.194 56.5642 164.895 79.4577C162.196 86.8957 158.5 93.9633 155.616 101.343C153.408 106.992 152.499 112.949 153.886 119.019C154.963 123.766 156.989 127.994 162.148 129.264C167.444 130.566 171.284 127.838 174.378 123.813C179.288 117.434 179.378 112.308 174.745 104.465C178.406 104.188 183.466 107.297 186.06 111.499C189.082 116.386 189.446 121.72 188.58 127.248L188.585 127.25Z" fill="#FE5200"/>
<path d="M182.175 180.74C179.824 187.167 179.256 193.576 179.842 199.966C174.137 204.943 168.194 209.661 162.042 214.141C161.725 204.311 163.907 195.484 170.291 187.932C173.382 184.278 177.09 181.362 181.81 180.02C181.995 180.37 182.225 180.605 182.175 180.737V180.74Z" fill="#FE5200"/>
<path d="M252.137 165.761C245.111 177.459 237.337 188.342 228.871 198.468C217.107 212.535 204 225.14 189.711 236.434C189.602 236.526 189.491 236.611 189.383 236.693C188.95 237.039 188.517 237.378 188.084 237.714C173.229 249.283 157.116 259.462 139.916 268.419C136.812 270.035 131.434 270.067 128.328 268.469C110.99 259.555 94.7985 249.346 79.888 237.714C66.6337 227.374 54.3909 215.911 43.2576 203.221C33.6034 192.221 24.7786 180.301 16.8492 167.399C15.8323 165.742 14.9395 164.009 14.0256 162.294C11.6695 157.883 58.1258 137.959 63.1867 137.729C67.0642 137.551 52.8801 146.032 58.2922 146.032C65.8307 143.799 57.69 150.482 53.9498 157.709C53.3767 158.812 52.9118 159.926 52.6159 161.024C52.0428 163.152 52.1247 165.213 53.3767 166.994C60.3868 176.975 68.1921 186.111 76.6471 194.528C82.8543 200.707 89.4128 206.499 96.2724 211.952C99.6031 214.604 103.005 217.17 106.471 219.663C111.893 223.569 117.475 227.291 123.191 230.853C124.989 231.972 126.804 233.078 128.629 234.169C130.602 235.349 133.986 235.587 136.794 235.01C137.927 234.777 138.967 234.412 139.784 233.922C154.311 225.233 167.954 215.527 180.458 204.559C194.283 192.441 206.713 178.784 217.4 163.265C218.216 162.08 217.743 160.725 216.526 159.296C216.079 158.775 215.535 158.241 214.914 157.706C208.86 152.451 195.804 146.725 200.749 145.013C204.925 143.566 189.645 137.654 194.085 137.729C203.847 137.893 257.332 157.108 252.139 165.763L252.137 165.761Z" fill="#0985C3"/>
</svg>
