<svg width="334" height="188" viewBox="0 0 334 188" fill="none" xmlns="http://www.w3.org/2000/svg">
<path d="M130.433 179.297C131.08 180.84 131.019 182.436 130.86 184.058C130.759 185.102 130.64 186.146 130.535 187.192C130.383 188.703 130.261 190.216 130.261 191.728C130.263 194.372 131.246 196.728 133.525 198.309C134.078 198.693 134.74 198.921 135.427 199.121L132.211 205.123C130.408 203.879 128.823 202.383 127.665 200.418C127.247 199.708 126.929 198.94 126.564 198.2C127.076 201.007 128.065 203.465 129.477 205.629C128.025 205.621 126.58 205.568 125.143 205.467C124.912 205.066 124.669 204.674 124.401 204.302C123.909 203.619 123.302 202.976 122.623 202.484C122.139 202.132 121.453 202.056 120.858 201.857C120.83 201.929 120.801 201.999 120.774 202.07C121.315 203.119 121.906 204.147 122.413 205.211L116.749 204.242C116.274 202.647 116.126 200.95 115.857 199.294C115.712 198.401 115.68 197.487 115.523 196.596C115.514 196.546 115.505 196.497 115.496 196.447C114.978 193.634 113.926 191.186 110.747 190.144C113.15 189.139 115.391 189.171 117.526 190.401C118.843 191.16 119.75 192.204 120.315 193.482C120.666 194.277 120.885 195.162 120.988 196.124C121.547 195.024 121.765 193.816 121.686 192.638C121.534 190.356 120.272 188.184 118.223 187.115C117.22 186.592 116.154 186.191 115.118 185.73C113.097 184.831 111.225 183.702 109.751 182.019C107.702 179.681 107.072 177.052 108.212 174.091C108.298 173.868 108.422 173.659 108.579 173.34C108.872 174.219 109.095 174.99 109.385 175.733C109.91 177.075 110.711 178.222 111.922 179.042C113.308 179.978 114.61 179.621 115.192 178.048C115.474 177.286 115.619 176.434 115.637 175.618C115.77 169.439 111.927 164.144 105.854 162.065C105.593 161.975 105.332 161.886 105.063 161.663C105.287 161.644 105.515 161.588 105.734 161.614C107.503 161.825 109.326 161.852 111.032 162.312C116.473 163.78 119.273 167.696 120.37 173.003C120.726 174.727 120.85 176.497 121.164 178.232C121.404 179.56 121.927 180.795 122.898 181.783C123.655 182.557 124.532 183.122 125.658 182.761C126.813 182.39 127.223 181.426 127.34 180.302C127.526 178.521 126.946 177.539 125.153 176.593C125.815 176.113 127.136 176.112 128.118 176.606C129.26 177.18 129.951 178.148 130.432 179.297L130.433 179.297Z" fill="#C1DE16"/>
<path d="M161.944 159.905C162.591 161.448 162.531 163.044 162.372 164.666C162.27 165.71 162.151 166.755 162.046 167.8C161.894 169.311 161.772 170.824 161.772 172.336C161.774 174.98 162.757 177.336 165.036 178.917C165.589 179.301 166.251 179.529 166.938 179.73L163.722 185.731C161.919 184.487 160.334 182.991 159.176 181.026C158.758 180.316 158.44 179.548 158.075 178.808C158.587 181.615 159.576 184.073 160.988 186.237C159.537 186.229 158.091 186.176 156.654 186.075C156.423 185.674 156.18 185.282 155.912 184.91C155.42 184.227 154.813 183.584 154.134 183.092C153.65 182.74 152.964 182.664 152.369 182.465C152.341 182.537 152.312 182.607 152.285 182.678C152.826 183.727 153.417 184.755 153.924 185.819L148.26 184.85C147.785 183.255 147.637 181.558 147.368 179.902C147.223 179.009 147.191 178.095 147.034 177.204C147.025 177.154 147.016 177.105 147.007 177.055C146.489 174.242 145.437 171.794 142.258 170.752C144.661 169.747 146.903 169.779 149.037 171.009C150.354 171.768 151.261 172.812 151.826 174.09C152.177 174.885 152.396 175.77 152.499 176.732C153.058 175.632 153.276 174.424 153.197 173.246C153.046 170.964 151.784 168.792 149.735 167.724C148.731 167.2 147.665 166.799 146.629 166.338C144.608 165.439 142.736 164.31 141.262 162.627C139.213 160.289 138.583 157.66 139.723 154.7C139.81 154.476 139.933 154.267 140.09 153.948C140.383 154.827 140.606 155.598 140.896 156.341C141.422 157.683 142.222 158.83 143.433 159.65C144.819 160.586 146.122 160.229 146.703 158.656C146.985 157.894 147.13 157.042 147.148 156.227C147.281 150.047 143.438 144.752 137.365 142.673C137.104 142.583 136.843 142.494 136.575 142.271C136.799 142.252 137.026 142.196 137.245 142.222C139.015 142.433 140.837 142.46 142.543 142.92C147.984 144.388 150.784 148.304 151.881 153.611C152.237 155.335 152.361 157.105 152.675 158.84C152.916 160.168 153.438 161.403 154.409 162.391C155.167 163.165 156.044 163.73 157.169 163.369C158.325 162.999 158.734 162.034 158.851 160.91C159.038 159.129 158.457 158.147 156.664 157.201C157.326 156.721 158.647 156.72 159.629 157.214C160.771 157.788 161.463 158.756 161.943 159.905L161.944 159.905Z" fill="#C1DE16"/>
<path d="M193.456 140.513C194.103 142.057 194.042 143.652 193.883 145.274C193.781 146.318 193.662 147.363 193.557 148.408C193.405 149.92 193.283 151.433 193.283 152.944C193.285 155.588 194.268 157.944 196.547 159.525C197.101 159.91 197.763 160.138 198.45 160.338L195.233 166.339C193.43 165.095 191.846 163.599 190.687 161.634C190.269 160.925 189.951 160.156 189.587 159.416C190.098 162.223 191.087 164.681 192.5 166.845C191.048 166.837 189.602 166.784 188.165 166.683C187.935 166.282 187.691 165.89 187.423 165.518C186.931 164.835 186.324 164.192 185.646 163.7C185.161 163.348 184.476 163.272 183.88 163.074C183.852 163.145 183.824 163.215 183.796 163.286C184.337 164.335 184.928 165.363 185.435 166.428L179.771 165.458C179.296 163.863 179.148 162.166 178.879 160.51C178.734 159.617 178.703 158.703 178.545 157.812C178.537 157.762 178.527 157.713 178.518 157.663C178 154.85 176.948 152.402 173.77 151.36C176.172 150.355 178.414 150.388 180.549 151.617C181.865 152.376 182.772 153.42 183.337 154.698C183.689 155.493 183.907 156.378 184.01 157.34C184.569 156.24 184.787 155.032 184.708 153.855C184.557 151.572 183.295 149.4 181.246 148.332C180.242 147.808 179.176 147.408 178.14 146.947C176.119 146.047 174.247 144.918 172.773 143.235C170.724 140.897 170.094 138.268 171.234 135.308C171.321 135.084 171.444 134.875 171.601 134.557C171.894 135.435 172.117 136.206 172.407 136.949C172.933 138.291 173.733 139.438 174.944 140.258C176.33 141.194 177.633 140.837 178.214 139.264C178.496 138.502 178.641 137.65 178.659 136.835C178.792 130.655 174.949 125.36 168.876 123.281C168.615 123.191 168.354 123.102 168.086 122.879C168.31 122.86 168.537 122.804 168.756 122.83C170.526 123.041 172.348 123.068 174.054 123.528C179.495 124.996 182.295 128.913 183.393 134.219C183.748 135.943 183.872 137.713 184.186 139.448C184.427 140.776 184.949 142.011 185.92 143C186.678 143.773 187.555 144.338 188.68 143.978C189.836 143.607 190.245 142.642 190.362 141.518C190.549 139.737 189.968 138.755 188.175 137.809C188.837 137.33 190.158 137.329 191.14 137.822C192.283 138.396 192.974 139.364 193.454 140.513L193.456 140.513Z" fill="#C1DE16"/>
<path d="M224.967 121.121C225.614 122.665 225.553 124.26 225.394 125.883C225.292 126.926 225.173 127.971 225.068 129.016C224.916 130.528 224.794 132.041 224.795 133.552C224.796 136.196 225.779 138.552 228.058 140.133C228.612 140.518 229.274 140.746 229.961 140.946L226.745 146.947C224.941 145.703 223.357 144.207 222.198 142.242C221.78 141.533 221.462 140.764 221.098 140.024C221.609 142.831 222.598 145.289 224.011 147.453C222.559 147.445 221.113 147.392 219.676 147.291C219.446 146.891 219.202 146.498 218.934 146.126C218.442 145.443 217.835 144.8 217.157 144.308C216.672 143.956 215.987 143.881 215.391 143.682C215.363 143.753 215.335 143.823 215.307 143.894C215.848 144.943 216.439 145.971 216.946 147.036L211.282 146.066C210.807 144.471 210.659 142.774 210.391 141.118C210.245 140.225 210.214 139.311 210.056 138.42C210.048 138.37 210.038 138.321 210.03 138.271C209.511 135.458 208.46 133.01 205.281 131.968C207.683 130.963 209.925 130.996 212.06 132.225C213.376 132.984 214.283 134.028 214.848 135.306C215.2 136.101 215.419 136.986 215.522 137.948C216.08 136.848 216.298 135.641 216.219 134.463C216.068 132.18 214.806 130.009 212.757 128.94C211.754 128.416 210.687 128.016 209.651 127.555C207.63 126.655 205.759 125.526 204.284 123.843C202.236 121.505 201.605 118.876 202.745 115.916C202.832 115.692 202.955 115.483 203.112 115.165C203.405 116.043 203.628 116.814 203.918 117.557C204.444 118.899 205.244 120.046 206.456 120.866C207.841 121.802 209.144 121.445 209.725 119.873C210.007 119.11 210.152 118.258 210.17 117.443C210.303 111.263 206.46 105.968 200.387 103.889C200.126 103.799 199.865 103.71 199.597 103.487C199.821 103.469 200.048 103.412 200.267 103.438C202.037 103.649 203.859 103.676 205.565 104.136C211.006 105.604 213.807 109.521 214.904 114.827C215.26 116.551 215.384 118.321 215.698 120.056C215.938 121.384 216.46 122.619 217.431 123.608C218.189 124.381 219.066 124.947 220.192 124.586C221.347 124.215 221.757 123.25 221.873 122.126C222.06 120.345 221.479 119.363 219.687 118.417C220.348 117.938 221.67 117.937 222.651 118.43C223.794 119.004 224.485 119.972 224.965 121.121L224.967 121.121Z" fill="#C1DE16"/>
<path d="M256.478 101.729C257.125 103.273 257.064 104.868 256.905 106.491C256.803 107.534 256.684 108.579 256.58 109.624C256.428 111.136 256.306 112.649 256.306 114.16C256.307 116.804 257.29 119.161 259.569 120.741C260.123 121.126 260.785 121.354 261.472 121.554L258.256 127.555C256.452 126.311 254.868 124.815 253.709 122.85C253.292 122.141 252.973 121.372 252.609 120.632C253.12 123.439 254.109 125.897 255.522 128.062C254.07 128.053 252.624 128 251.187 127.899C250.957 127.499 250.713 127.106 250.446 126.734C249.954 126.051 249.346 125.408 248.668 124.916C248.183 124.564 247.498 124.489 246.902 124.29C246.874 124.361 246.846 124.431 246.818 124.502C247.36 125.551 247.95 126.579 248.458 127.644L242.794 126.674C242.319 125.079 242.171 123.382 241.902 121.726C241.756 120.833 241.725 119.92 241.568 119.028C241.559 118.978 241.549 118.929 241.541 118.879C241.022 116.066 239.971 113.618 236.792 112.576C239.194 111.571 241.436 111.604 243.571 112.833C244.887 113.592 245.794 114.636 246.359 115.914C246.711 116.709 246.93 117.594 247.033 118.556C247.591 117.456 247.809 116.249 247.73 115.071C247.579 112.788 246.317 110.617 244.268 109.548C243.265 109.024 242.198 108.624 241.162 108.163C239.141 107.263 237.27 106.134 235.796 104.451C233.747 102.113 233.116 99.484 234.257 96.5237C234.343 96.2998 234.466 96.091 234.623 95.7727C234.916 96.6515 235.139 97.422 235.429 98.1649C235.955 99.5068 236.756 100.654 237.967 101.474C239.353 102.41 240.655 102.053 241.237 100.481C241.518 99.7182 241.664 98.8663 241.681 98.0507C241.814 91.8714 237.972 86.5762 231.899 84.4968C231.638 84.407 231.377 84.3181 231.108 84.0948C231.332 84.0765 231.56 84.0202 231.778 84.0459C233.548 84.2572 235.371 84.284 237.076 84.7442C242.518 86.2121 245.318 90.1287 246.415 95.4349C246.771 97.1592 246.895 98.9295 247.209 100.664C247.449 101.992 247.972 103.227 248.942 104.216C249.7 104.99 250.577 105.555 251.703 105.194C252.858 104.823 253.268 103.858 253.385 102.734C253.571 100.953 252.99 99.9712 251.198 99.0252C251.859 98.5456 253.181 98.5446 254.162 99.0384C255.305 99.6122 255.996 100.581 256.477 101.729L256.478 101.729Z" fill="#C1DE16"/>
<path d="M287.989 82.3371C288.636 83.8808 288.575 85.4765 288.416 87.0987C288.315 88.1423 288.195 89.1869 288.091 90.2323C287.939 91.7437 287.817 93.2568 287.817 94.7686C287.818 97.412 288.802 99.7687 291.081 101.349C291.634 101.734 292.296 101.962 292.983 102.162L289.767 108.163C287.963 106.919 286.379 105.423 285.221 103.458C284.803 102.749 284.484 101.98 284.12 101.24C284.632 104.047 285.62 106.505 287.033 108.67C285.581 108.661 284.136 108.608 282.698 108.507C282.468 108.107 282.225 107.715 281.957 107.342C281.465 106.659 280.857 106.017 280.179 105.524C279.694 105.172 279.009 105.097 278.413 104.898C278.385 104.969 278.357 105.04 278.33 105.11C278.871 106.159 279.461 107.188 279.969 108.252L274.305 107.282C273.83 105.687 273.682 103.99 273.413 102.335C273.267 101.441 273.236 100.528 273.079 99.636C273.07 99.586 273.061 99.5372 273.052 99.4872C272.534 96.6745 271.482 94.2266 268.303 93.1846C270.706 92.179 272.947 92.2118 275.082 93.4414C276.398 94.2 277.305 95.2443 277.87 96.5226C278.222 97.317 278.441 98.2019 278.544 99.1645C279.102 98.0645 279.32 96.8567 279.241 95.6789C279.09 93.3966 277.828 91.2247 275.779 90.1559C274.776 89.6326 273.709 89.2318 272.674 88.7708C270.652 87.8716 268.781 86.7425 267.307 85.0593C265.258 82.7212 264.627 80.0921 265.768 77.1319C265.854 76.9079 265.978 76.6992 266.134 76.3808C266.427 77.2596 266.65 78.0301 266.941 78.7731C267.466 80.115 268.267 81.2622 269.478 82.082C270.864 83.0184 272.166 82.6613 272.748 81.0887C273.029 80.3264 273.175 79.4745 273.192 78.6589C273.325 72.4796 269.483 67.1843 263.41 65.1049C263.149 65.0152 262.888 64.9263 262.619 64.703C262.843 64.6847 263.071 64.6283 263.29 64.6541C265.059 64.8654 266.882 64.8921 268.587 65.3524C274.029 66.8202 276.829 70.7368 277.926 76.043C278.282 77.7674 278.406 79.5376 278.72 81.2725C278.96 82.6005 279.483 83.8352 280.453 84.8238C281.211 85.5977 282.088 86.1627 283.214 85.8018C284.369 85.4309 284.779 84.466 284.896 83.3427C285.082 81.5611 284.502 80.5793 282.709 79.6334C283.37 79.1538 284.692 79.1528 285.673 79.6466C286.816 80.2203 287.507 81.1887 287.988 82.3372L287.989 82.3371Z" fill="#C1DE16"/>
<path d="M319.5 62.9451C320.147 64.4889 320.086 66.0845 319.927 67.7067C319.826 68.7503 319.707 69.7949 319.602 70.8403C319.45 72.3518 319.328 73.8648 319.328 75.3767C319.33 78.02 320.313 80.3767 322.592 81.9573C323.145 82.3419 323.807 82.5698 324.494 82.7699L321.278 88.7713C319.475 87.5272 317.89 86.0314 316.732 84.0661C316.314 83.3568 315.996 82.5883 315.631 81.8481C316.143 84.6553 317.132 87.1135 318.544 89.2777C317.092 89.269 315.647 89.2164 314.21 89.115C313.979 88.7147 313.736 88.3225 313.468 87.9502C312.976 87.2672 312.369 86.6247 311.69 86.1323C311.206 85.78 310.52 85.7047 309.925 85.5059C309.897 85.577 309.868 85.6477 309.841 85.7185C310.382 86.7674 310.973 87.7955 311.48 88.8598L305.816 87.8905C305.341 86.2955 305.193 84.5982 304.924 82.9426C304.779 82.049 304.747 81.1357 304.59 80.244C304.581 80.1941 304.572 80.1452 304.563 80.0952C304.045 77.2825 302.993 74.8346 299.814 73.7926C302.217 72.787 304.458 72.8199 306.593 74.0495C307.91 74.808 308.817 75.8524 309.382 77.1306C309.733 77.925 309.952 78.81 310.055 79.7725C310.614 78.6726 310.832 77.4647 310.753 76.2869C310.601 74.0046 309.339 71.8327 307.29 70.7639C306.287 70.2406 305.221 69.8398 304.185 69.3788C302.164 68.4796 300.292 67.3506 298.818 65.6673C296.769 63.3292 296.139 60.7002 297.279 57.7399C297.365 57.5159 297.489 57.3072 297.646 56.9889C297.939 57.8676 298.162 58.6381 298.452 59.3811C298.977 60.723 299.778 61.8702 300.989 62.69C302.375 63.6264 303.677 63.2693 304.259 61.6967C304.541 60.9344 304.686 60.0825 304.704 59.2669C304.837 53.0876 300.994 47.7924 294.921 45.7129C294.66 45.6232 294.399 45.5343 294.13 45.311C294.354 45.2927 294.582 45.2364 294.801 45.2621C296.57 45.4734 298.393 45.5002 300.099 45.9604C305.54 47.4283 308.34 51.3449 309.437 56.6511C309.793 58.3754 309.917 60.1457 310.231 61.8805C310.471 63.2086 310.994 64.4433 311.965 65.4318C312.722 66.2057 313.599 66.7707 314.725 66.4098C315.88 66.0389 316.29 65.0741 316.407 63.9507C316.593 62.1691 316.013 61.1874 314.22 60.2414C314.882 59.7618 316.203 59.7608 317.185 60.2546C318.327 60.8283 319.018 61.7967 319.499 62.9452L319.5 62.9451Z" fill="#C1DE16"/>
<path d="M351.011 43.5532C351.658 45.0969 351.598 46.6926 351.439 48.3148C351.337 49.3584 351.218 50.4029 351.113 51.4484C350.961 52.9598 350.839 54.4728 350.839 55.9847C350.841 58.6281 351.824 60.9847 354.103 62.5653C354.656 62.9499 355.318 63.1778 356.005 63.378L352.789 69.3793C350.986 68.1352 349.401 66.6395 348.243 64.6741C347.825 63.9648 347.507 63.1963 347.142 62.4562C347.654 65.2634 348.643 67.7215 350.055 69.8857C348.604 69.877 347.158 69.8244 345.721 69.723C345.49 69.3228 345.247 68.9306 344.979 68.5582C344.487 67.8752 343.88 67.2327 343.201 66.7404C342.717 66.388 342.031 66.3128 341.436 66.1139C341.408 66.1851 341.379 66.2557 341.352 66.3265C341.893 67.3754 342.484 68.4036 342.991 69.4678L337.327 68.4985C336.852 66.9035 336.704 65.2062 336.435 63.5506C336.29 62.6571 336.258 61.7438 336.101 60.8521C336.092 60.8021 336.083 60.7532 336.074 60.7033C335.556 57.8906 334.504 55.4427 331.325 54.4006C333.728 53.395 335.97 53.4279 338.104 54.6575C339.421 55.4161 340.328 56.4604 340.893 57.7386C341.244 58.533 341.463 59.418 341.566 60.3805C342.125 59.2806 342.343 58.0728 342.264 56.8949C342.113 54.6126 340.85 52.4408 338.801 51.3719C337.798 50.8486 336.732 50.4479 335.696 49.9869C333.675 49.0876 331.803 47.9586 330.329 46.2754C328.28 43.9372 327.65 41.3082 328.79 38.3479C328.876 38.124 329 37.9153 329.157 37.5969C329.45 38.4757 329.673 39.2462 329.963 39.9891C330.489 41.3311 331.289 42.4782 332.5 43.2981C333.886 44.2344 335.189 43.8773 335.77 42.3048C336.052 41.5424 336.197 40.6906 336.215 39.8749C336.348 33.6956 332.505 28.4004 326.432 26.321C326.171 26.2312 325.91 26.1423 325.642 25.9191C325.866 25.9008 326.093 25.8444 326.312 25.8702C328.082 26.0815 329.904 26.1082 331.61 26.5685C337.051 28.0363 339.851 31.9529 340.948 37.2591C341.304 38.9834 341.428 40.7537 341.742 42.4885C341.983 43.8166 342.505 45.0513 343.476 46.0399C344.233 46.8137 345.111 47.3788 346.236 47.0179C347.392 46.6469 347.801 45.6821 347.918 44.5587C348.105 42.7771 347.524 41.7954 345.731 40.8495C346.393 40.3699 347.714 40.3689 348.696 40.8626C349.838 41.4364 350.53 42.4047 351.01 43.5533L351.011 43.5532Z" fill="#C1DE16"/>
<path d="M98.9221 198.689C99.5691 200.232 99.5083 201.828 99.3493 203.45C99.2476 204.494 99.1286 205.538 99.0239 206.584C98.8719 208.095 98.7499 209.608 98.75 211.12C98.7516 213.764 99.7347 216.12 102.014 217.701C102.567 218.085 103.229 218.313 103.916 218.513L100.7 224.515C98.8965 223.271 97.3121 221.775 96.1537 219.81C95.7358 219.1 95.4175 218.332 95.0531 217.592C95.5647 220.399 96.5536 222.857 97.9662 225.021C96.5144 225.013 95.0687 224.96 93.6315 224.858C93.4011 224.458 93.1577 224.066 92.8899 223.694C92.3978 223.011 91.7905 222.368 91.1122 221.876C90.6276 221.524 89.9422 221.448 89.3464 221.249C89.3184 221.321 89.2901 221.391 89.2626 221.462C89.8039 222.511 90.3945 223.539 90.9018 224.603L85.2378 223.634C84.7628 222.039 84.6147 220.342 84.346 218.686C84.2005 217.793 84.1692 216.879 84.0117 215.988C84.0031 215.938 83.9937 215.889 83.985 215.839C83.4666 213.026 82.415 210.578 79.2362 209.536C81.6386 208.531 83.8803 208.563 86.0151 209.793C87.3315 210.552 88.2385 211.596 88.8036 212.874C89.1551 213.669 89.374 214.554 89.477 215.516C90.0354 214.416 90.2535 213.208 90.1746 212.03C90.0233 209.748 88.7612 207.576 86.7122 206.507C85.709 205.984 84.6426 205.583 83.6067 205.122C81.5854 204.223 79.714 203.094 78.2399 201.411C76.191 199.073 75.5606 196.444 76.7008 193.483C76.7873 193.259 76.9107 193.051 77.0674 192.732C77.3605 193.611 77.5834 194.382 77.8737 195.125C78.3993 196.467 79.1998 197.614 80.411 198.434C81.7967 199.37 83.0993 199.013 83.6809 197.44C83.9626 196.678 84.1077 195.826 84.1255 195.01C84.2584 188.831 80.4159 183.536 74.3427 181.456C74.0819 181.367 73.8208 181.278 73.5523 181.055C73.7763 181.036 74.0039 180.98 74.2226 181.006C75.9924 181.217 77.8148 181.244 79.5204 181.704C84.9618 183.172 87.762 187.088 88.8591 192.395C89.215 194.119 89.339 195.889 89.653 197.624C89.8933 198.952 90.4158 200.187 91.3864 201.175C92.1442 201.949 93.0213 202.514 94.147 202.153C95.3024 201.782 95.712 200.818 95.8288 199.694C96.0153 197.913 95.4346 196.931 93.642 195.985C94.3034 195.505 95.625 195.504 96.6066 195.998C97.7491 196.572 98.4403 197.54 98.9208 198.689L98.9221 198.689Z" fill="#C1DE16"/>
</svg>
