<svg width="393" height="176" viewBox="0 0 393 176" fill="none" xmlns="http://www.w3.org/2000/svg">
<path d="M115.997 113.574C116.232 115.231 115.77 116.76 115.206 118.289C114.843 119.273 114.464 120.253 114.098 121.238C113.568 122.662 113.067 124.095 112.685 125.558C112.018 128.115 112.372 130.644 114.177 132.75C114.615 133.262 115.198 133.65 115.812 134.018L111.182 139.01C109.752 137.35 108.598 135.502 107.974 133.307C107.75 132.515 107.636 131.691 107.471 130.883C107.255 133.728 107.59 136.357 108.409 138.808C107.007 138.432 105.621 138.015 104.257 137.554C104.135 137.108 103.999 136.667 103.834 136.239C103.531 135.454 103.106 134.679 102.574 134.031C102.194 133.567 101.55 133.321 101.024 132.978C100.979 133.039 100.934 133.101 100.889 133.162C101.148 134.314 101.459 135.458 101.68 136.616L96.446 134.245C96.3901 132.582 96.6763 130.902 96.8352 129.233C96.9206 128.331 97.1214 127.44 97.1947 126.537C97.1989 126.487 97.2022 126.437 97.2065 126.387C97.4167 123.534 97.0187 120.9 94.207 119.087C96.7857 118.722 98.9461 119.321 100.7 121.051C101.782 122.118 102.395 123.358 102.618 124.738C102.757 125.595 102.745 126.507 102.601 127.464C103.42 126.541 103.937 125.428 104.158 124.268C104.589 122.022 103.918 119.602 102.206 118.049C101.368 117.289 100.438 116.631 99.5521 115.923C97.8242 114.542 96.2993 112.976 95.2991 110.974C93.9085 108.194 93.9639 105.491 95.8161 102.916C95.9564 102.721 96.1286 102.55 96.3608 102.282C96.422 103.206 96.4427 104.008 96.5355 104.8C96.7044 106.231 97.1886 107.544 98.1529 108.643C99.2566 109.9 100.607 109.884 101.568 108.51C102.033 107.844 102.389 107.056 102.613 106.272C104.305 100.327 101.927 94.2318 96.578 90.6833C96.3483 90.5305 96.1183 90.3784 95.915 90.0945C96.1364 90.1335 96.3708 90.1365 96.5759 90.2168C98.2346 90.869 99.991 91.3561 101.525 92.2329C106.417 95.0299 108.136 99.5276 107.854 104.939C107.762 106.697 107.434 108.441 107.299 110.199C107.195 111.544 107.388 112.871 108.077 114.073C108.615 115.014 109.32 115.782 110.501 115.718C111.712 115.651 112.353 114.822 112.75 113.764C113.381 112.088 113.068 110.991 111.573 109.622C112.334 109.326 113.613 109.659 114.438 110.385C115.398 111.23 115.822 112.341 115.996 113.574L115.997 113.574Z" fill="#FE5200"/>
<path d="M151.39 102.787C151.625 104.444 151.162 105.972 150.598 107.502C150.236 108.486 149.856 109.466 149.49 110.451C148.961 111.875 148.46 113.308 148.078 114.77C147.41 117.328 147.765 119.857 149.57 121.963C150.008 122.475 150.591 122.863 151.205 123.23L146.575 128.222C145.145 126.562 143.99 124.714 143.367 122.52C143.142 121.728 143.029 120.904 142.863 120.096C142.648 122.941 142.983 125.569 143.802 128.021C142.399 127.645 141.014 127.228 139.649 126.766C139.528 126.321 139.391 125.88 139.227 125.452C138.923 124.667 138.498 123.891 137.967 123.243C137.587 122.78 136.943 122.534 136.417 122.19C136.372 122.252 136.327 122.313 136.282 122.375C136.54 123.527 136.851 124.671 137.073 125.829L131.839 123.458C131.783 121.794 132.069 120.115 132.228 118.445C132.313 117.544 132.514 116.652 132.587 115.75C132.591 115.699 132.595 115.65 132.599 115.599C132.809 112.747 132.411 110.113 129.6 108.3C132.178 107.935 134.339 108.534 136.093 110.264C137.174 111.331 137.788 112.571 138.011 113.95C138.15 114.808 138.138 115.719 137.994 116.677C138.813 115.754 139.329 114.64 139.551 113.481C139.982 111.235 139.311 108.814 137.599 107.262C136.761 106.502 135.83 105.844 134.945 105.136C133.217 103.754 131.692 102.189 130.692 100.187C129.301 97.4066 129.356 94.7036 131.209 92.1282C131.349 91.9334 131.521 91.7627 131.753 91.4944C131.815 92.4187 131.835 93.2206 131.928 94.0128C132.097 95.444 132.581 96.7565 133.545 97.8561C134.649 99.1126 136 99.0967 136.96 97.7225C137.426 97.0562 137.782 96.2688 138.005 95.4842C139.697 89.5397 137.32 83.4444 131.971 79.896C131.741 79.7432 131.511 79.5911 131.308 79.3071C131.529 79.3461 131.763 79.3492 131.968 79.4294C133.627 80.0817 135.384 80.5687 136.917 81.4456C141.81 84.2425 143.528 88.7402 143.247 94.1513C143.155 95.9096 142.827 97.6536 142.692 99.4115C142.588 100.757 142.781 102.084 143.47 103.286C144.007 104.226 144.713 104.995 145.893 104.931C147.105 104.864 147.745 104.034 148.143 102.977C148.774 101.301 148.46 100.204 146.966 98.8351C147.727 98.5385 149.006 98.8719 149.83 99.598C150.79 100.442 151.214 101.554 151.388 102.787L151.39 102.787Z" fill="#FE5200"/>
<path d="M186.782 91.9995C187.018 93.6567 186.555 95.1851 185.991 96.7143C185.628 97.6982 185.249 98.6786 184.883 99.6635C184.353 101.087 183.853 102.52 183.47 103.983C182.803 106.541 183.157 109.069 184.962 111.175C185.401 111.687 185.983 112.075 186.597 112.443L181.967 117.435C180.537 115.775 179.383 113.927 178.759 111.733C178.535 110.941 178.421 110.117 178.256 109.308C178.041 112.154 178.375 114.782 179.194 117.233C177.792 116.857 176.407 116.441 175.042 115.979C174.92 115.533 174.784 115.092 174.619 114.664C174.316 113.879 173.891 113.104 173.359 112.456C172.98 111.992 172.335 111.746 171.809 111.403C171.764 111.465 171.719 111.526 171.675 111.588C171.933 112.739 172.244 113.883 172.466 115.041L167.231 112.67C167.175 111.007 167.461 109.328 167.62 107.658C167.706 106.757 167.906 105.865 167.98 104.963C167.984 104.912 167.987 104.862 167.992 104.812C168.202 101.96 167.804 99.3252 164.992 97.5127C167.571 97.1477 169.731 97.7467 171.485 99.4765C172.567 100.543 173.18 101.783 173.404 103.163C173.543 104.02 173.53 104.932 173.387 105.889C174.205 104.966 174.722 103.853 174.943 102.694C175.375 100.447 174.703 98.0268 172.991 96.4743C172.153 95.7141 171.223 95.0566 170.337 94.3485C168.609 92.967 167.084 91.4012 166.084 89.3997C164.694 86.6192 164.749 83.9163 166.601 81.3409C166.742 81.1461 166.914 80.9754 167.146 80.707C167.207 81.6314 167.228 82.4332 167.321 83.2254C167.49 84.6567 167.974 85.9691 168.938 87.0687C170.042 88.3252 171.392 88.3094 172.353 86.9352C172.818 86.2689 173.174 85.4815 173.398 84.6969C175.09 78.7523 172.712 72.6571 167.363 69.1086C167.133 68.9558 166.903 68.8037 166.7 68.5198C166.922 68.5588 167.156 68.5618 167.361 68.6421C169.02 69.2943 170.776 69.7813 172.31 70.6582C177.203 73.4551 178.921 77.9529 178.639 83.364C178.547 85.1222 178.219 86.8663 178.084 88.6241C177.981 89.9698 178.174 91.2965 178.863 92.4985C179.4 93.4389 180.105 94.2075 181.286 94.1432C182.497 94.0767 183.138 93.2469 183.535 92.1896C184.166 90.5132 183.853 89.4165 182.358 88.0477C183.119 87.7511 184.398 88.0846 185.223 88.8106C186.183 89.6548 186.607 90.7666 186.781 91.9993L186.782 91.9995Z" fill="#FE5200"/>
<path d="M222.175 81.2123C222.41 82.8695 221.948 84.3979 221.383 85.9271C221.021 86.9109 220.641 87.8914 220.275 88.8763C219.746 90.3001 219.245 91.733 218.863 93.1957C218.195 95.7535 218.55 98.2822 220.355 100.388C220.793 100.9 221.376 101.288 221.99 101.656L217.36 106.648C215.93 104.988 214.775 103.14 214.152 100.945C213.927 100.153 213.814 99.3294 213.648 98.5211C213.433 101.366 213.768 103.995 214.587 106.446C213.184 106.07 211.799 105.654 210.434 105.192C210.313 104.746 210.176 104.305 210.012 103.877C209.708 103.092 209.283 102.317 208.752 101.669C208.372 101.205 207.728 100.959 207.202 100.616C207.157 100.678 207.112 100.739 207.067 100.8C207.325 101.952 207.637 103.096 207.858 104.254L202.624 101.883C202.568 100.22 202.854 98.5403 203.013 96.8706C203.098 95.9694 203.299 95.0778 203.372 94.1753C203.377 94.1248 203.38 94.0751 203.384 94.0246C203.594 91.1723 203.196 88.5379 200.385 86.7254C202.963 86.3605 205.124 86.9595 206.878 88.6893C207.96 89.7562 208.573 90.9961 208.796 92.3757C208.935 93.2332 208.923 94.1448 208.779 95.1021C209.598 94.1792 210.114 93.0659 210.336 91.9064C210.767 89.6601 210.096 87.2396 208.384 85.6871C207.546 84.9269 206.615 84.2694 205.73 83.5612C204.002 82.1798 202.477 80.614 201.477 78.6125C200.086 75.832 200.142 73.129 201.994 70.5536C202.134 70.3588 202.306 70.1882 202.538 69.9198C202.6 70.8441 202.62 71.646 202.713 72.4382C202.882 73.8694 203.366 75.1819 204.331 76.2815C205.434 77.538 206.785 77.5221 207.745 76.1479C208.211 75.4817 208.567 74.6942 208.79 73.9097C210.483 67.9651 208.105 61.8699 202.756 58.3214C202.526 58.1686 202.296 58.0165 202.093 57.7325C202.314 57.7715 202.548 57.7746 202.754 57.8548C204.412 58.5071 206.169 58.9941 207.702 59.871C212.595 62.6679 214.313 67.1656 214.032 72.5768C213.94 74.335 213.612 76.079 213.477 77.8369C213.373 79.1825 213.566 80.5092 214.255 81.7112C214.792 82.6517 215.498 83.4203 216.678 83.3559C217.89 83.2895 218.53 82.4597 218.928 81.4024C219.559 79.726 219.246 78.6293 217.751 77.2605C218.512 76.9639 219.791 77.2973 220.615 78.0234C221.576 78.8676 221.999 79.9793 222.173 81.2121L222.175 81.2123Z" fill="#FE5200"/>
<path d="M257.567 70.4249C257.803 72.0822 257.34 73.6105 256.776 75.1397C256.413 76.1236 256.034 77.104 255.668 78.089C255.139 79.5128 254.638 80.9457 254.255 82.4084C253.588 84.9661 253.943 87.4948 255.748 89.6006C256.186 90.1128 256.768 90.5008 257.382 90.8682L252.752 95.8605C251.322 94.2005 250.168 92.3525 249.545 90.158C249.32 89.3661 249.206 88.542 249.041 87.7338C248.826 90.5791 249.16 93.2074 249.979 95.6587C248.577 95.2829 247.192 94.8662 245.827 94.4044C245.705 93.9589 245.569 93.5179 245.404 93.0899C245.101 92.3046 244.676 91.5293 244.144 90.8813C243.765 90.4179 243.121 90.1716 242.595 89.8285C242.549 89.8902 242.504 89.9514 242.46 90.013C242.718 91.1647 243.029 92.3088 243.251 93.4668L238.016 91.0958C237.96 89.4326 238.247 87.753 238.405 86.0833C238.491 85.182 238.692 84.2905 238.765 83.388C238.769 83.3374 238.772 83.2878 238.777 83.2373C238.987 80.3849 238.589 77.7506 235.777 75.9381C238.356 75.5731 240.516 76.1722 242.271 77.9019C243.352 78.9689 243.965 80.2087 244.189 81.5884C244.328 82.4459 244.316 83.3575 244.172 84.3147C244.99 83.3919 245.507 82.2785 245.728 81.119C246.16 78.8727 245.488 76.4522 243.776 74.8997C242.938 74.1396 242.008 73.482 241.122 72.7739C239.394 71.3924 237.87 69.8266 236.869 67.8252C235.479 65.0446 235.534 62.3417 237.386 59.7663C237.527 59.5715 237.699 59.4008 237.931 59.1325C237.992 60.0568 238.013 60.8586 238.106 61.6508C238.275 63.0821 238.759 64.3945 239.723 65.4941C240.827 66.7507 242.177 66.7348 243.138 65.3606C243.603 64.6943 243.959 63.9069 244.183 63.1223C245.875 57.1777 243.498 51.0825 238.148 47.534C237.919 47.3812 237.689 47.2291 237.485 46.9452C237.707 46.9842 237.941 46.9872 238.146 47.0675C239.805 47.7197 241.561 48.2068 243.095 49.0836C247.988 51.8806 249.706 56.3783 249.424 61.7894C249.332 63.5477 249.004 65.2917 248.869 67.0495C248.766 68.3952 248.959 69.7219 249.648 70.9239C250.185 71.8643 250.891 72.6329 252.071 72.5686C253.283 72.5021 253.923 71.6723 254.32 70.615C254.952 68.9386 254.638 67.8419 253.143 66.4732C253.904 66.1765 255.183 66.51 256.008 67.236C256.968 68.0802 257.392 69.192 257.566 70.4247L257.567 70.4249Z" fill="#FE5200"/>
<path d="M292.96 59.6376C293.195 61.2948 292.733 62.8231 292.168 64.3523C291.806 65.3362 291.426 66.3167 291.061 67.3016C290.531 68.7254 290.03 70.1583 289.648 71.621C288.98 74.1788 289.335 76.7075 291.14 78.8133C291.578 79.3254 292.161 79.7135 292.775 80.0809L288.145 85.0731C286.715 83.4132 285.561 81.5652 284.937 79.3707C284.712 78.5787 284.599 77.7547 284.434 76.9464C284.218 79.7917 284.553 82.4201 285.372 84.8713C283.97 84.4955 282.584 84.0788 281.22 83.617C281.098 83.1715 280.962 82.7305 280.797 82.3025C280.494 81.5172 280.069 80.7419 279.537 80.094C279.157 79.6305 278.513 79.3842 277.987 79.0411C277.942 79.1029 277.897 79.164 277.852 79.2256C278.111 80.3773 278.422 81.5215 278.643 82.6795L273.409 80.3085C273.353 78.6452 273.639 76.9656 273.798 75.2959C273.883 74.3947 274.084 73.5031 274.157 72.6006C274.162 72.5501 274.165 72.5004 274.169 72.4499C274.379 69.5976 273.981 66.9632 271.17 65.1507C273.749 64.7858 275.909 65.3848 277.663 67.1146C278.745 68.1815 279.358 69.4214 279.581 70.801C279.72 71.6585 279.708 72.5701 279.564 73.5274C280.383 72.6045 280.899 71.4912 281.121 70.3317C281.552 68.0854 280.881 65.6649 279.169 64.1124C278.331 63.3522 277.4 62.6947 276.515 61.9865C274.787 60.6051 273.262 59.0393 272.262 57.0378C270.871 54.2573 270.927 51.5543 272.779 48.9789C272.919 48.7841 273.091 48.6134 273.324 48.3451C273.385 49.2694 273.406 50.0713 273.498 50.8635C273.667 52.2947 274.151 53.6072 275.116 54.7068C276.219 55.9633 277.57 55.9474 278.531 54.5732C278.996 53.9069 279.352 53.1195 279.576 52.3349C281.268 46.3904 278.89 40.2952 273.541 36.7467C273.311 36.5939 273.081 36.4418 272.878 36.1578C273.099 36.1968 273.334 36.1999 273.539 36.2801C275.197 36.9324 276.954 37.4194 278.487 38.2963C283.38 41.0932 285.098 45.5909 284.817 51.002C284.725 52.7603 284.397 54.5043 284.262 56.2622C284.158 57.6078 284.351 58.9345 285.04 60.1365C285.578 61.077 286.283 61.8455 287.463 61.7812C288.675 61.7148 289.316 60.885 289.713 59.8277C290.344 58.1513 290.031 57.0546 288.536 55.6858C289.297 55.3892 290.576 55.7226 291.401 56.4487C292.361 57.2929 292.784 58.4046 292.959 59.6373L292.96 59.6376Z" fill="#FE5200"/>
<path d="M328.352 48.8503C328.588 50.5076 328.125 52.0359 327.561 53.5651C327.198 54.549 326.819 55.5295 326.453 56.5144C325.924 57.9382 325.423 59.3711 325.04 60.8338C324.373 63.3915 324.728 65.9202 326.533 68.0261C326.971 68.5382 327.554 68.9262 328.168 69.2937L323.538 74.2859C322.107 72.6259 320.953 70.7779 320.33 68.5834C320.105 67.7915 319.991 66.9674 319.826 66.1592C319.611 69.0045 319.946 71.6328 320.765 74.0841C319.362 73.7083 317.977 73.2916 316.612 72.8298C316.49 72.3843 316.354 71.9433 316.189 71.5153C315.886 70.73 315.461 69.9547 314.929 69.3068C314.55 68.8433 313.906 68.597 313.38 68.2539C313.335 68.3156 313.289 68.3768 313.245 68.4384C313.503 69.5901 313.814 70.7342 314.036 71.8922L308.801 69.5213C308.745 67.858 309.032 66.1784 309.191 64.5087C309.276 63.6074 309.477 62.7159 309.55 61.8134C309.554 61.7628 309.558 61.7132 309.562 61.6627C309.772 58.8103 309.374 56.176 306.562 54.3635C309.141 53.9985 311.302 54.5976 313.056 56.3274C314.137 57.3943 314.751 58.6342 314.974 60.0138C315.113 60.8713 315.101 61.7829 314.957 62.7401C315.775 61.8173 316.292 60.704 316.514 59.5445C316.945 57.2982 316.273 54.8776 314.562 53.3251C313.723 52.565 312.793 51.9074 311.907 51.1993C310.18 49.8179 308.655 48.252 307.655 46.2506C306.264 43.4701 306.319 40.7671 308.171 38.1917C308.312 37.9969 308.484 37.8262 308.716 37.5579C308.777 38.4822 308.798 39.284 308.891 40.0762C309.06 41.5075 309.544 42.8199 310.508 43.9195C311.612 45.1761 312.963 45.1602 313.923 43.786C314.389 43.1197 314.745 42.3323 314.968 41.5477C316.66 35.6031 314.283 29.5079 308.933 25.9594C308.704 25.8066 308.474 25.6546 308.27 25.3706C308.492 25.4096 308.726 25.4126 308.931 25.4929C310.59 26.1451 312.346 26.6322 313.88 27.509C318.773 30.306 320.491 34.8037 320.21 40.2148C320.118 41.9731 319.79 43.7171 319.654 45.4749C319.551 46.8206 319.744 48.1473 320.433 49.3493C320.97 50.2898 321.676 51.0583 322.856 50.994C324.068 50.9275 324.708 50.0977 325.105 49.0405C325.737 47.3641 325.423 46.2673 323.928 44.8986C324.69 44.6019 325.968 44.9354 326.793 45.6615C327.753 46.5057 328.177 47.6174 328.351 48.8501L328.352 48.8503Z" fill="#FE5200"/>
<path d="M363.745 38.063C363.98 39.7202 363.518 41.2486 362.954 42.7778C362.591 43.7616 362.212 44.7421 361.846 45.727C361.316 47.1508 360.815 48.5837 360.433 50.0464C359.766 52.6042 360.12 55.1329 361.925 57.2387C362.363 57.7508 362.946 58.1389 363.56 58.5063L358.93 63.4985C357.5 61.8386 356.346 59.9906 355.722 57.7961C355.498 57.0041 355.384 56.1801 355.219 55.3718C355.003 58.2171 355.338 60.8455 356.157 63.2967C354.755 62.9209 353.369 62.5042 352.005 62.0424C351.883 61.597 351.747 61.1559 351.582 60.7279C351.279 59.9426 350.854 59.1673 350.322 58.5194C349.942 58.0559 349.298 57.8097 348.772 57.4665C348.727 57.5283 348.682 57.5895 348.637 57.651C348.896 58.8027 349.207 59.9469 349.428 61.1049L344.194 58.7339C344.138 57.0706 344.424 55.391 344.583 53.7213C344.669 52.8201 344.869 51.9285 344.943 51.026C344.947 50.9755 344.95 50.9259 344.954 50.8753C345.165 48.023 344.767 45.3887 341.955 43.5762C344.534 43.2112 346.694 43.8102 348.448 45.54C349.53 46.607 350.143 47.8468 350.366 49.2264C350.505 50.0839 350.493 50.9955 350.349 51.9528C351.168 51.0299 351.685 49.9166 351.906 48.7571C352.337 46.5108 351.666 44.0903 349.954 42.5378C349.116 41.7776 348.186 41.1201 347.3 40.4119C345.572 39.0305 344.047 37.4647 343.047 35.4632C341.656 32.6827 341.712 29.9797 343.564 27.4043C343.704 27.2095 343.877 27.0389 344.109 26.7705C344.17 27.6948 344.191 28.4967 344.283 29.2889C344.452 30.7202 344.937 32.0326 345.901 33.1322C347.005 34.3887 348.355 34.3729 349.316 32.9986C349.781 32.3324 350.137 31.5449 350.361 30.7604C352.053 24.8158 349.675 18.7206 344.326 15.1721C344.096 15.0193 343.866 14.8672 343.663 14.5832C343.884 14.6222 344.119 14.6253 344.324 14.7056C345.983 15.3578 347.739 15.8448 349.273 16.7217C354.165 19.5186 355.883 24.0163 355.602 29.4275C355.51 31.1857 355.182 32.9297 355.047 34.6876C354.943 36.0333 355.136 37.3599 355.825 38.562C356.363 39.5024 357.068 40.271 358.249 40.2066C359.46 40.1402 360.101 39.3104 360.498 38.2531C361.129 36.5767 360.816 35.48 359.321 34.1112C360.082 33.8146 361.361 34.148 362.186 34.8741C363.146 35.7183 363.57 36.83 363.744 38.0628L363.745 38.063Z" fill="#FE5200"/>
<path d="M399.138 27.2756C399.373 28.9329 398.91 30.4612 398.346 31.9904C397.984 32.9743 397.604 33.9548 397.238 34.9397C396.709 36.3635 396.208 37.7964 395.825 39.2591C395.158 41.8168 395.513 44.3455 397.318 46.4513C397.756 46.9635 398.339 47.3515 398.953 47.719L394.323 52.7112C392.893 51.0512 391.738 49.2032 391.115 47.0087C390.89 46.2168 390.777 45.3927 390.611 44.5845C390.396 47.4298 390.731 50.0581 391.55 52.5094C390.147 52.1336 388.762 51.7169 387.397 51.2551C387.276 50.8096 387.139 50.3686 386.974 49.9406C386.671 49.1553 386.246 48.38 385.715 47.732C385.335 47.2686 384.691 47.0223 384.165 46.6792C384.12 46.7409 384.074 46.8021 384.03 46.8637C384.288 48.0154 384.599 49.1595 384.821 50.3175L379.587 47.9466C379.531 46.2833 379.817 44.6037 379.976 42.934C380.061 42.0327 380.262 41.1412 380.335 40.2387C380.339 40.1881 380.343 40.1385 380.347 40.088C380.557 37.2356 380.159 34.6013 377.347 32.7888C379.926 32.4238 382.087 33.0229 383.841 34.7527C384.922 35.8196 385.536 37.0595 385.759 38.4391C385.898 39.2966 385.886 40.2082 385.742 41.1654C386.56 40.2426 387.077 39.1292 387.299 37.9698C387.73 35.7234 387.058 33.3029 385.347 31.7504C384.509 30.9903 383.578 30.3327 382.693 29.6246C380.965 28.2431 379.44 26.6773 378.44 24.6759C377.049 21.8954 377.104 19.1924 378.957 16.617C379.097 16.4222 379.269 16.2515 379.501 15.9832C379.562 16.9075 379.583 17.7093 379.676 18.5015C379.845 19.9328 380.329 21.2452 381.293 22.3448C382.397 23.6014 383.748 23.5855 384.708 22.2113C385.174 21.545 385.53 20.7576 385.753 19.973C387.445 14.0284 385.068 7.93322 379.719 4.38473C379.489 4.23192 379.259 4.07984 379.055 3.79589C379.277 3.83489 379.511 3.83792 379.716 3.9182C381.375 4.57043 383.131 5.05747 384.665 5.93432C389.558 8.73127 391.276 13.229 390.995 18.6401C390.903 20.3984 390.575 22.1424 390.44 23.9002C390.336 25.2459 390.529 26.5726 391.218 27.7746C391.755 28.7151 392.461 29.4836 393.641 29.4193C394.853 29.3528 395.493 28.523 395.891 27.4657C396.522 25.7893 396.208 24.6926 394.714 23.3239C395.475 23.0272 396.754 23.3607 397.578 24.0868C398.538 24.9309 398.962 26.0427 399.136 27.2754L399.138 27.2756Z" fill="#FE5200"/>
<path d="M9.81934 145.936C10.0547 147.593 9.59215 149.122 9.02785 150.651C8.66538 151.635 8.28588 152.615 7.92004 153.6C7.39058 155.024 6.88971 156.457 6.50727 157.92C5.83988 160.477 6.19464 163.006 7.99958 165.112C8.4377 165.624 9.02047 166.012 9.63445 166.379L5.00441 171.372C3.57438 169.712 2.42004 167.864 1.79665 165.669C1.57186 164.877 1.45833 164.053 1.29308 163.245C1.07768 166.09 1.41244 168.719 2.23144 171.17C0.829062 170.794 -0.556288 170.377 -1.92097 169.916C-2.04262 169.47 -2.17888 169.029 -2.34374 168.601C-2.64699 167.816 -3.07192 167.041 -3.60365 166.393C-3.98332 165.929 -4.62733 165.683 -5.15341 165.34C-5.19849 165.401 -5.24374 165.463 -5.28826 165.524C-5.03001 166.676 -4.71877 167.82 -4.49731 168.978L-9.73168 166.607C-9.78765 164.944 -9.50143 163.264 -9.34246 161.595C-9.2571 160.693 -9.05634 159.802 -8.98304 158.899C-8.97878 158.849 -8.97547 158.799 -8.97122 158.748C-8.76103 155.896 -9.15905 153.262 -11.9707 151.449C-9.392 151.084 -7.23159 151.683 -5.47736 153.413C-4.39581 154.48 -3.78259 155.72 -3.55932 157.1C-3.42024 157.957 -3.4324 158.869 -3.57627 159.826C-2.75772 158.903 -2.24116 157.79 -2.01946 156.63C-1.58832 154.384 -2.25971 151.963 -3.97158 150.411C-4.8097 149.651 -5.74006 148.993 -6.62561 148.285C-8.35354 146.904 -9.87838 145.338 -10.8786 143.336C-12.2692 140.556 -12.2138 137.853 -10.3616 135.278C-10.2213 135.083 -10.0491 134.912 -9.8169 134.644C-9.75575 135.568 -9.73501 136.37 -9.64224 137.162C-9.47328 138.593 -8.98909 139.906 -8.02477 141.005C-6.92107 142.262 -5.57048 142.246 -4.60995 140.872C-4.14452 140.206 -3.78853 139.418 -3.565 138.634C-1.87279 132.689 -4.25035 126.594 -9.59969 123.045C-9.82937 122.892 -10.0594 122.74 -10.2627 122.456C-10.0413 122.495 -9.80691 122.498 -9.6018 122.579C-7.94313 123.231 -6.18674 123.718 -4.65315 124.595C0.239795 127.392 1.95781 131.889 1.67654 137.301C1.5845 139.059 1.25648 140.803 1.1213 142.561C1.01779 143.906 1.21079 145.233 1.89972 146.435C2.43705 147.376 3.14256 148.144 4.32293 148.08C5.53459 148.013 6.17505 147.184 6.5723 146.126C7.20356 144.45 6.89018 143.353 5.3953 141.984C6.15648 141.688 7.43535 142.021 8.26002 142.747C9.22022 143.591 9.64386 144.703 9.81805 145.936L9.81934 145.936Z" fill="#FE5200"/>
<path d="M45.2119 135.149C45.4473 136.806 44.9847 138.334 44.4204 139.864C44.058 140.847 43.6785 141.828 43.3126 142.813C42.7832 144.237 42.2823 145.67 41.8999 147.132C41.2325 149.69 41.5872 152.219 43.3922 154.325C43.8303 154.837 44.413 155.225 45.027 155.592L40.397 160.584C38.967 158.924 37.8126 157.076 37.1892 154.882C36.9644 154.09 36.8509 153.266 36.6857 152.458C36.4703 155.303 36.805 157.931 37.624 160.383C36.2216 160.007 34.8363 159.59 33.4716 159.128C33.35 158.683 33.2137 158.242 33.0488 157.814C32.7456 157.028 32.3207 156.253 31.7889 155.605C31.4093 155.142 30.7652 154.895 30.2392 154.552C30.1941 154.614 30.1488 154.675 30.1043 154.737C30.3626 155.889 30.6738 157.033 30.8953 158.191L25.6609 155.82C25.6049 154.156 25.8912 152.477 26.0501 150.807C26.1355 149.906 26.3362 149.014 26.4095 148.112C26.4138 148.061 26.4171 148.012 26.4214 147.961C26.6315 145.109 26.2335 142.474 23.4219 140.662C26.0006 140.297 28.161 140.896 29.9152 142.626C30.9968 143.693 31.61 144.933 31.8333 146.312C31.9723 147.17 31.9602 148.081 31.8163 149.039C32.6349 148.116 33.1514 147.002 33.3731 145.843C33.8043 143.597 33.1329 141.176 31.421 139.624C30.5829 138.863 29.6525 138.206 28.767 137.498C27.039 136.116 25.5142 134.551 24.514 132.549C23.1234 129.769 23.1788 127.066 25.0309 124.49C25.1713 124.295 25.3435 124.125 25.5757 123.856C25.6368 124.781 25.6576 125.582 25.7503 126.375C25.9193 127.806 26.4035 129.118 27.3678 130.218C28.4715 131.475 29.8221 131.459 30.7826 130.084C31.2481 129.418 31.604 128.631 31.8276 127.846C33.5198 121.902 31.1422 115.806 25.7929 112.258C25.5632 112.105 25.3331 111.953 25.1299 111.669C25.3513 111.708 25.5857 111.711 25.7908 111.791C27.4494 112.444 29.2058 112.931 30.7394 113.807C35.6324 116.604 37.3504 121.102 37.0691 126.513C36.9771 128.272 36.6491 130.016 36.5139 131.773C36.4104 133.119 36.6034 134.446 37.2923 135.648C37.8296 136.588 38.5351 137.357 39.7155 137.292C40.9272 137.226 41.5676 136.396 41.9649 135.339C42.5961 133.663 42.2828 132.566 40.7879 131.197C41.5491 130.9 42.8279 131.234 43.6526 131.96C44.6128 132.804 45.0364 133.916 45.2106 135.149L45.2119 135.149Z" fill="#FE5200"/>
<path d="M80.6045 124.362C80.8398 126.019 80.3773 127.547 79.813 129.076C79.4505 130.06 79.071 131.041 78.7052 132.026C78.1757 133.449 77.6748 134.882 77.2924 136.345C76.625 138.903 76.9798 141.431 78.7847 143.537C79.2228 144.049 79.8056 144.437 80.4196 144.805L75.7895 149.797C74.3595 148.137 73.2052 146.289 72.5818 144.095C72.357 143.303 72.2435 142.479 72.0782 141.67C71.8628 144.516 72.1976 147.144 73.0166 149.595C71.6142 149.22 70.2288 148.803 68.8642 148.341C68.7425 147.896 68.6062 147.455 68.4414 147.027C68.1381 146.241 67.7132 145.466 67.1815 144.818C66.8018 144.355 66.1578 144.108 65.6317 143.765C65.5866 143.827 65.5414 143.888 65.4969 143.95C65.7551 145.101 66.0664 146.245 66.2878 147.403L61.0534 145.032C60.9975 143.369 61.2837 141.69 61.4427 140.02C61.528 139.119 61.7288 138.227 61.8021 137.325C61.8063 137.274 61.8097 137.224 61.8139 137.174C62.0241 134.322 61.6261 131.687 58.8144 129.875C61.3931 129.51 63.5535 130.109 65.3078 131.839C66.3893 132.906 67.0025 134.145 67.2258 135.525C67.3649 136.383 67.3527 137.294 67.2089 138.251C68.0274 137.329 68.544 136.215 68.7657 135.056C69.1968 132.809 68.5254 130.389 66.8135 128.836C65.9754 128.076 65.0451 127.419 64.1595 126.711C62.4316 125.329 60.9067 123.763 59.9066 121.762C58.5159 118.981 58.5713 116.278 60.4235 113.703C60.5638 113.508 60.736 113.337 60.9682 113.069C61.0294 113.993 61.0501 114.795 61.1429 115.587C61.3118 117.019 61.796 118.331 62.7604 119.431C63.8641 120.687 65.2146 120.671 66.1752 119.297C66.6406 118.631 66.9966 117.844 67.2201 117.059C68.9123 111.114 66.5348 105.019 61.1854 101.471C60.9558 101.318 60.7257 101.166 60.5224 100.882C60.7438 100.921 60.9782 100.924 61.1833 101.004C62.842 101.656 64.5984 102.143 66.132 103.02C71.0249 105.817 72.7429 110.315 72.4617 115.726C72.3696 117.484 72.0416 119.228 71.9064 120.986C71.8029 122.332 71.9959 123.659 72.6848 124.861C73.2222 125.801 73.9277 126.57 75.1081 126.505C76.3197 126.439 76.9602 125.609 77.3574 124.552C77.9887 122.875 77.6753 121.779 76.1804 120.41C76.9416 120.113 78.2205 120.447 79.0451 121.173C80.0053 122.017 80.429 123.129 80.6032 124.361L80.6045 124.362Z" fill="#FE5200"/>
</svg>
