<svg width="367" height="180" viewBox="0 0 367 180" fill="none" xmlns="http://www.w3.org/2000/svg">
<path d="M131.619 26.1147C130.647 27.4778 129.259 28.2665 127.796 28.9857C126.855 29.4488 125.905 29.8977 124.961 30.3593C123.596 31.0261 122.246 31.7193 120.96 32.5156C118.714 33.909 117.229 35.9859 117.085 38.7556C117.05 39.4287 117.205 40.1115 117.396 40.8009L110.601 41.2275C110.709 39.0392 111.146 36.9045 112.206 34.8848C112.589 34.156 113.075 33.4806 113.512 32.7811C111.395 34.6944 109.826 36.8296 108.731 39.1703C107.973 37.9315 107.257 36.6748 106.586 35.3997C106.805 34.9931 107.01 34.5796 107.186 34.1559C107.507 33.3778 107.734 32.5232 107.795 31.6873C107.839 31.0898 107.542 30.4675 107.397 29.8563C107.322 29.87 107.247 29.8831 107.173 29.8971C106.566 30.9096 106.003 31.9531 105.365 32.9449L103.206 27.6195C104.312 26.3757 105.677 25.3559 106.943 24.2556C107.626 23.6613 108.386 23.1537 109.061 22.5502C109.099 22.5165 109.135 22.4828 109.173 22.4492C111.291 20.5272 112.818 18.344 112.03 15.093C114.15 16.6056 115.303 18.5285 115.382 20.9909C115.43 22.5094 115.02 23.8304 114.231 24.984C113.741 25.7012 113.104 26.3533 112.34 26.9479C113.569 26.8432 114.711 26.3925 115.67 25.7051C117.531 24.3745 118.712 22.1579 118.542 19.8532C118.458 18.7248 118.238 17.6071 118.084 16.4837C117.784 14.2919 117.758 12.1064 118.412 9.96685C119.321 6.9937 121.224 5.07326 124.341 4.48351C124.577 4.43906 124.819 4.43409 125.172 4.39965C124.58 5.11157 124.042 5.70689 123.563 6.34486C122.699 7.49842 122.146 8.7831 122.087 10.2445C122.021 11.9156 123.01 12.8348 124.653 12.501C125.45 12.339 126.25 12.0137 126.953 11.5993C132.276 8.45793 134.754 2.40274 133.323 -3.85506C133.262 -4.12407 133.2 -4.39282 133.248 -4.73868C133.382 -4.55783 133.55 -4.3941 133.643 -4.19457C134.395 -2.57887 135.332 -1.01554 135.839 0.67672C137.457 6.07542 135.603 10.5185 131.67 14.2457C130.391 15.4563 128.952 16.494 127.642 17.6746C126.64 18.5783 125.865 19.6727 125.536 21.0185C125.278 22.0702 125.259 23.1133 126.159 23.8802C127.083 24.667 128.119 24.5071 129.135 24.0148C130.748 23.2351 131.276 22.2244 131.137 20.2024C131.893 20.512 132.589 21.635 132.687 22.7294C132.801 24.0028 132.341 25.1004 131.618 26.1137L131.619 26.1147Z" fill="#FE5200" fill-opacity="0.5"/>
<path d="M164.699 42.689C163.727 44.0521 162.339 44.8408 160.876 45.5599C159.936 46.0231 158.985 46.472 158.041 46.9336C156.676 47.6004 155.326 48.2935 154.041 49.0899C151.794 50.4833 150.309 52.5602 150.165 55.3299C150.13 56.003 150.285 56.6858 150.476 57.3751L143.681 57.8018C143.789 55.6134 144.226 53.4788 145.287 51.4591C145.669 50.7303 146.155 50.0549 146.592 49.3553C144.475 51.2687 142.907 53.4039 141.811 55.7445C141.054 54.5058 140.337 53.2491 139.666 51.974C139.885 51.5674 140.09 51.1539 140.266 50.7301C140.587 49.9521 140.814 49.0975 140.875 48.2615C140.919 47.664 140.622 47.0418 140.478 46.4306C140.402 46.4443 140.327 46.4574 140.253 46.4713C139.646 47.4839 139.083 48.5274 138.446 49.5191L136.287 44.1938C137.392 42.95 138.757 41.9302 140.023 40.8299C140.706 40.2356 141.466 39.728 142.141 39.1245C142.179 39.0908 142.216 39.0571 142.253 39.0234C144.371 37.1014 145.898 34.9183 145.11 31.6672C147.23 33.1799 148.383 35.1028 148.462 37.5652C148.51 39.0837 148.1 40.4047 147.311 41.5583C146.821 42.2755 146.184 42.9276 145.42 43.5221C146.649 43.4175 147.791 42.9668 148.751 42.2794C150.611 40.9488 151.793 38.7322 151.622 36.4274C151.539 35.299 151.318 34.1814 151.164 33.058C150.864 30.8662 150.838 28.6807 151.493 26.5411C152.401 23.568 154.304 21.6475 157.421 21.0578C157.657 21.0133 157.899 21.0084 158.253 20.9739C157.66 21.6858 157.122 22.2812 156.644 22.9191C155.78 24.0727 155.226 25.3574 155.167 26.8187C155.101 28.4899 156.09 29.4091 157.733 29.0753C158.53 28.9133 159.33 28.588 160.033 28.1735C165.356 25.0322 167.834 18.977 166.403 12.7192C166.342 12.4502 166.28 12.1815 166.328 11.8356C166.462 12.0164 166.63 12.1802 166.723 12.3797C167.475 13.9954 168.412 15.5587 168.919 17.251C170.537 22.6497 168.683 27.0928 164.75 30.8199C163.471 32.0306 162.032 33.0682 160.722 34.2489C159.72 35.1526 158.946 36.247 158.616 37.5927C158.358 38.6445 158.339 39.6876 159.239 40.4545C160.163 41.2413 161.199 41.0814 162.215 40.5891C163.828 39.8094 164.357 38.7987 164.217 36.7767C164.973 37.0863 165.67 38.2092 165.767 39.3037C165.881 40.5771 165.422 41.6747 164.698 42.688L164.699 42.689Z" fill="#FE5200" fill-opacity="0.5"/>
<path d="M197.779 59.2632C196.808 60.6263 195.419 61.415 193.956 62.1342C193.016 62.5973 192.065 63.0462 191.121 63.5078C189.756 64.1746 188.406 64.8678 187.121 65.6641C184.874 67.0575 183.389 69.1344 183.245 71.9041C183.21 72.5772 183.365 73.26 183.557 73.9494L176.761 74.376C176.869 72.1877 177.306 70.053 178.367 68.0333C178.749 67.3045 179.235 66.6291 179.672 65.9296C177.555 67.8429 175.987 69.9781 174.891 72.3188C174.134 71.08 173.417 69.8233 172.746 68.5482C172.965 68.1416 173.17 67.7281 173.346 67.3044C173.667 66.5263 173.894 65.6717 173.955 64.8358C173.999 64.2383 173.702 63.616 173.558 63.0048C173.482 63.0185 173.407 63.0316 173.333 63.0456C172.726 64.0581 172.163 65.1016 171.526 66.0934L169.367 60.768C170.472 59.5242 171.837 58.5044 173.103 57.4041C173.786 56.8098 174.546 56.3022 175.221 55.6987C175.259 55.665 175.296 55.6313 175.334 55.5977C177.451 53.6757 178.979 51.4925 178.19 48.2415C180.31 49.7541 181.463 51.677 181.542 54.1394C181.59 55.6579 181.18 56.9789 180.391 58.1325C179.901 58.8497 179.264 59.5018 178.5 60.0964C179.729 59.9917 180.871 59.541 181.831 58.8536C183.691 57.523 184.873 55.3064 184.702 53.0017C184.619 51.8733 184.398 50.7556 184.244 49.6322C183.944 47.4404 183.918 45.2549 184.573 43.1153C185.481 40.1422 187.384 38.2218 190.501 37.632C190.737 37.5876 190.979 37.5826 191.333 37.5481C190.74 38.2601 190.202 38.8554 189.724 39.4934C188.86 40.6469 188.306 41.9316 188.247 43.393C188.181 45.0641 189.17 45.9833 190.814 45.6495C191.61 45.4875 192.411 45.1622 193.113 44.7478C198.436 41.6064 200.914 35.5512 199.483 29.2934C199.422 29.0244 199.36 28.7557 199.408 28.4098C199.542 28.5907 199.71 28.7544 199.803 28.9539C200.556 30.5696 201.493 32.133 202 33.8252C203.618 39.2239 201.763 43.667 197.83 47.3942C196.551 48.6048 195.112 49.6425 193.803 50.8231C192.8 51.7268 192.026 52.8212 191.697 54.167C191.438 55.2187 191.419 56.2618 192.319 57.0287C193.243 57.8155 194.279 57.6556 195.295 57.1633C196.908 56.3836 197.437 55.3729 197.297 53.3509C198.053 53.6605 198.75 54.7835 198.847 55.8779C198.961 57.1513 198.502 58.2489 197.778 59.2622L197.779 59.2632Z" fill="#FE5200" fill-opacity="0.5"/>
<path d="M230.859 75.8375C229.888 77.2006 228.499 77.9893 227.036 78.7084C226.096 79.1716 225.145 79.6205 224.201 80.0821C222.836 80.7489 221.486 81.442 220.201 82.2384C217.955 83.6318 216.469 85.7087 216.326 88.4784C216.29 89.1515 216.445 89.8343 216.637 90.5236L209.841 90.9503C209.949 88.7619 210.386 86.6273 211.447 84.6076C211.83 83.8788 212.315 83.2034 212.753 82.5038C210.636 84.4172 209.067 86.5524 207.971 88.893C207.214 87.6543 206.497 86.3976 205.826 85.1225C206.045 84.7159 206.251 84.3024 206.426 83.8786C206.748 83.1006 206.974 82.246 207.035 81.41C207.079 80.8125 206.782 80.1903 206.638 79.5791C206.563 79.5928 206.488 79.6059 206.413 79.6198C205.806 80.6324 205.243 81.6759 204.606 82.6676L202.447 77.3423C203.553 76.0985 204.917 75.0787 206.183 73.9784C206.866 73.3841 207.626 72.8765 208.301 72.273C208.339 72.2393 208.376 72.2056 208.414 72.1719C210.532 70.2499 212.059 68.0668 211.27 64.8157C213.39 66.3284 214.543 68.2513 214.622 70.7137C214.671 72.2322 214.261 73.5532 213.472 74.7068C212.981 75.424 212.344 76.0761 211.58 76.6706C212.809 76.566 213.951 76.1153 214.911 75.4279C216.771 74.0973 217.953 71.8807 217.782 69.5759C217.699 68.4475 217.478 67.3299 217.324 66.2065C217.024 64.0147 216.998 61.8292 217.653 59.6896C218.561 56.7165 220.464 54.796 223.581 54.2063C223.817 54.1618 224.06 54.1569 224.413 54.1224C223.82 54.8343 223.283 55.4297 222.804 56.0676C221.94 57.2212 221.386 58.5059 221.327 59.9672C221.261 61.6384 222.251 62.5576 223.894 62.2238C224.69 62.0618 225.491 61.7365 226.193 61.322C231.516 58.1807 233.994 52.1255 232.563 45.8677C232.502 45.5987 232.44 45.33 232.489 44.9841C232.622 45.1649 232.79 45.3287 232.883 45.5282C233.636 47.1439 234.573 48.7072 235.08 50.3995C236.698 55.7982 234.843 60.2413 230.91 63.9684C229.632 65.1791 228.192 66.2167 226.883 67.3974C225.88 68.3011 225.106 69.3955 224.777 70.7412C224.518 71.793 224.5 72.8361 225.399 73.603C226.323 74.3898 227.359 74.2299 228.375 73.7376C229.988 72.9578 230.517 71.9472 230.377 69.9252C231.133 70.2348 231.83 71.3577 231.927 72.4522C232.041 73.7256 231.582 74.8232 230.858 75.8365L230.859 75.8375Z" fill="#FE5200" fill-opacity="0.5"/>
<path d="M263.939 92.4118C262.968 93.7749 261.579 94.5635 260.117 95.2827C259.176 95.7459 258.225 96.1948 257.281 96.6564C255.916 97.3232 254.566 98.0163 253.281 98.8126C251.035 100.206 249.549 102.283 249.406 105.053C249.37 105.726 249.525 106.409 249.717 107.098L242.921 107.525C243.029 105.336 243.466 103.202 244.527 101.182C244.91 100.453 245.395 99.7777 245.833 99.0781C243.716 100.991 242.147 103.127 241.051 105.467C240.294 104.229 239.577 102.972 238.907 101.697C239.125 101.29 239.331 100.877 239.506 100.453C239.828 99.6749 240.054 98.8203 240.115 97.9843C240.159 97.3868 239.863 96.7646 239.718 96.1534C239.643 96.167 239.568 96.1802 239.493 96.1941C238.886 97.2066 238.323 98.2502 237.686 99.2419L235.527 93.9166C236.633 92.6728 237.997 91.653 239.263 90.5526C239.946 89.9584 240.706 89.4507 241.381 88.8473C241.419 88.8136 241.456 88.7799 241.494 88.7462C243.612 86.8242 245.139 84.6411 244.35 81.39C246.471 82.9027 247.623 84.8256 247.702 87.288C247.751 88.8065 247.341 90.1275 246.552 91.281C246.061 91.9982 245.424 92.6504 244.66 93.2449C245.89 93.1403 247.031 92.6896 247.991 92.0022C249.851 90.6716 251.033 88.4549 250.862 86.1502C250.779 85.0218 250.558 83.9042 250.404 82.7808C250.104 80.589 250.078 78.4035 250.733 76.2639C251.641 73.2908 253.544 71.3703 256.661 70.7806C256.897 70.7361 257.14 70.7311 257.493 70.6967C256.9 71.4086 256.363 72.0039 255.884 72.6419C255.02 73.7955 254.466 75.0802 254.407 76.5415C254.341 78.2126 255.331 79.1319 256.974 78.7981C257.77 78.636 258.571 78.3108 259.273 77.8963C264.596 74.755 267.074 68.6998 265.643 62.442C265.582 62.173 265.52 61.9042 265.569 61.5584C265.702 61.7392 265.87 61.903 265.963 62.1025C266.716 63.7182 267.653 65.2815 268.16 66.9738C269.778 72.3725 267.923 76.8156 263.99 80.5427C262.712 81.7533 261.272 82.791 259.963 83.9716C258.96 84.8754 258.186 85.9697 257.857 87.3155C257.598 88.3673 257.58 89.4104 258.479 90.1772C259.403 90.9641 260.439 90.8042 261.455 90.3118C263.068 89.5321 263.597 88.5215 263.457 86.4994C264.213 86.8091 264.91 87.932 265.007 89.0265C265.121 90.2999 264.662 91.3974 263.939 92.4107L263.939 92.4118Z" fill="#FE5200" fill-opacity="0.5"/>
<path d="M297.019 108.986C296.048 110.349 294.659 111.138 293.197 111.857C292.256 112.32 291.305 112.769 290.361 113.231C288.997 113.897 287.646 114.591 286.361 115.387C284.115 116.78 282.629 118.857 282.486 121.627C282.45 122.3 282.605 122.983 282.797 123.672L276.001 124.099C276.109 121.91 276.546 119.776 277.607 117.756C277.99 117.027 278.475 116.352 278.913 115.652C276.796 117.566 275.227 119.701 274.131 122.042C273.374 120.803 272.657 119.546 271.987 118.271C272.206 117.864 272.411 117.451 272.586 117.027C272.908 116.249 273.134 115.394 273.195 114.559C273.24 113.961 272.943 113.339 272.798 112.728C272.723 112.741 272.648 112.754 272.573 112.768C271.967 113.781 271.404 114.824 270.766 115.816L268.607 110.491C269.713 109.247 271.078 108.227 272.344 107.127C273.026 106.533 273.786 106.025 274.461 105.421C274.499 105.388 274.536 105.354 274.574 105.32C276.692 103.398 278.219 101.215 277.431 97.9642C279.551 99.4769 280.703 101.4 280.782 103.862C280.831 105.381 280.421 106.702 279.632 107.855C279.142 108.572 278.505 109.225 277.741 109.819C278.97 109.715 280.111 109.264 281.071 108.576C282.931 107.246 284.113 105.029 283.943 102.724C283.859 101.596 283.638 100.478 283.484 99.355C283.184 97.1632 283.158 94.9777 283.813 92.8381C284.722 89.865 286.625 87.9445 289.741 87.3548C289.977 87.3103 290.22 87.3054 290.573 87.2709C289.98 87.9828 289.443 88.5782 288.964 89.2161C288.1 90.3697 287.546 91.6544 287.487 93.1157C287.421 94.7869 288.411 95.7061 290.054 95.3723C290.85 95.2103 291.651 94.885 292.354 94.4705C297.677 91.3292 300.154 85.274 298.723 79.0162C298.662 78.7472 298.6 78.4785 298.649 78.1326C298.782 78.3134 298.95 78.4772 299.043 78.6767C299.796 80.2924 300.733 81.8557 301.24 83.548C302.858 88.9467 301.003 93.3898 297.07 97.1169C295.792 98.3276 294.352 99.3652 293.043 100.546C292.041 101.45 291.266 102.544 290.937 103.89C290.678 104.941 290.66 105.985 291.559 106.751C292.483 107.538 293.519 107.378 294.536 106.886C296.148 106.106 296.677 105.096 296.537 103.074C297.293 103.383 297.99 104.506 298.087 105.601C298.201 106.874 297.742 107.972 297.019 108.985L297.019 108.986Z" fill="#FE5200" fill-opacity="0.5"/>
<path d="M330.1 125.56C329.128 126.923 327.74 127.712 326.277 128.431C325.336 128.894 324.385 129.343 323.442 129.805C322.077 130.472 320.726 131.165 319.441 131.961C317.195 133.355 315.709 135.431 315.566 138.201C315.53 138.874 315.685 139.557 315.877 140.246L309.082 140.673C309.189 138.485 309.626 136.35 310.687 134.33C311.07 133.602 311.556 132.926 311.993 132.227C309.876 134.14 308.307 136.275 307.211 138.616C306.454 137.377 305.737 136.12 305.067 134.845C305.286 134.439 305.491 134.025 305.666 133.601C305.988 132.823 306.214 131.969 306.275 131.133C306.32 130.535 306.023 129.913 305.878 129.302C305.803 129.316 305.728 129.329 305.653 129.343C305.047 130.355 304.484 131.399 303.846 132.39L301.687 127.065C302.793 125.821 304.158 124.801 305.424 123.701C306.107 123.107 306.866 122.599 307.542 121.996C307.579 121.962 307.616 121.928 307.654 121.895C309.772 119.973 311.299 117.79 310.511 114.539C312.631 116.051 313.784 117.974 313.863 120.436C313.911 121.955 313.501 123.276 312.712 124.43C312.222 125.147 311.585 125.799 310.821 126.393C312.05 126.289 313.191 125.838 314.151 125.151C316.012 123.82 317.193 121.603 317.023 119.299C316.939 118.17 316.718 117.053 316.565 115.929C316.264 113.737 316.239 111.552 316.893 109.412C317.802 106.439 319.705 104.519 322.822 103.929C323.058 103.885 323.3 103.88 323.653 103.845C323.06 104.557 322.523 105.152 322.044 105.79C321.18 106.944 320.627 108.229 320.568 109.69C320.501 111.361 321.491 112.28 323.134 111.947C323.93 111.785 324.731 111.459 325.434 111.045C330.757 107.903 333.234 101.848 331.804 95.5905C331.742 95.3215 331.681 95.0527 331.729 94.7069C331.863 94.8877 332.03 95.0515 332.124 95.251C332.876 96.8667 333.813 98.43 334.32 100.122C335.938 105.521 334.083 109.964 330.15 113.691C328.872 114.902 327.432 115.94 326.123 117.12C325.121 118.024 324.346 119.118 324.017 120.464C323.758 121.516 323.74 122.559 324.639 123.326C325.563 124.113 326.599 123.953 327.616 123.46C329.228 122.681 329.757 121.67 329.617 119.648C330.373 119.958 331.07 121.081 331.167 122.175C331.281 123.448 330.822 124.546 330.099 125.559L330.1 125.56Z" fill="#FE5200" fill-opacity="0.5"/>
<path d="M363.18 142.135C362.208 143.498 360.82 144.286 359.357 145.005C358.416 145.469 357.466 145.918 356.522 146.379C355.157 147.046 353.806 147.739 352.521 148.535C350.275 149.929 348.789 152.006 348.646 154.775C348.611 155.448 348.765 156.131 348.957 156.821L342.162 157.247C342.269 155.059 342.707 152.924 343.767 150.905C344.15 150.176 344.636 149.5 345.073 148.801C342.956 150.714 341.387 152.849 340.291 155.19C339.534 153.951 338.818 152.695 338.147 151.42C338.366 151.013 338.571 150.599 338.746 150.176C339.068 149.398 339.294 148.543 339.356 147.707C339.4 147.11 339.103 146.487 338.958 145.876C338.883 145.89 338.808 145.903 338.733 145.917C338.127 146.929 337.564 147.973 336.926 148.965L334.767 143.639C335.873 142.395 337.238 141.376 338.504 140.275C339.187 139.681 339.947 139.173 340.622 138.57C340.66 138.536 340.696 138.503 340.734 138.469C342.852 136.547 344.379 134.364 343.591 131.113C345.711 132.625 346.864 134.548 346.943 137.011C346.991 138.529 346.581 139.85 345.792 141.004C345.302 141.721 344.665 142.373 343.901 142.968C345.13 142.863 346.271 142.412 347.231 141.725C349.092 140.394 350.273 138.178 350.103 135.873C350.019 134.745 349.798 133.627 349.645 132.503C349.345 130.312 349.319 128.126 349.973 125.987C350.882 123.013 352.785 121.093 355.902 120.503C356.138 120.459 356.38 120.454 356.733 120.419C356.141 121.131 355.603 121.727 355.124 122.365C354.26 123.518 353.707 124.803 353.648 126.264C353.581 127.935 354.571 128.855 356.214 128.521C357.011 128.359 357.811 128.034 358.514 127.619C363.837 124.478 366.314 118.423 364.884 112.165C364.823 111.896 364.761 111.627 364.809 111.281C364.943 111.462 365.11 111.626 365.204 111.825C365.956 113.441 366.893 115.004 367.4 116.696C369.018 122.095 367.163 126.538 363.23 130.265C361.952 131.476 360.512 132.514 359.203 133.694C358.201 134.598 357.426 135.692 357.097 137.038C356.838 138.09 356.82 139.133 357.72 139.9C358.643 140.687 359.679 140.527 360.696 140.035C362.309 139.255 362.837 138.244 362.697 136.222C363.453 136.532 364.15 137.655 364.247 138.749C364.361 140.023 363.902 141.12 363.179 142.133L363.18 142.135Z" fill="#FE5200" fill-opacity="0.5"/>
<path d="M396.26 158.709C395.288 160.072 393.9 160.861 392.437 161.58C391.496 162.043 390.546 162.492 389.602 162.953C388.237 163.62 386.887 164.313 385.601 165.11C383.355 166.503 381.87 168.58 381.726 171.35C381.691 172.023 381.846 172.706 382.037 173.395L375.242 173.822C375.35 171.633 375.787 169.499 376.847 167.479C377.23 166.75 377.716 166.075 378.153 165.375C376.036 167.288 374.467 169.424 373.372 171.764C372.614 170.526 371.898 169.269 371.227 167.994C371.446 167.587 371.651 167.174 371.827 166.75C372.148 165.972 372.374 165.117 372.436 164.281C372.48 163.684 372.183 163.062 372.038 162.45C371.963 162.464 371.888 162.477 371.813 162.491C371.207 163.504 370.644 164.547 370.006 165.539L367.847 160.214C368.953 158.97 370.318 157.95 371.584 156.85C372.267 156.255 373.027 155.748 373.702 155.144C373.74 155.111 373.776 155.077 373.814 155.043C375.932 153.121 377.459 150.938 376.671 147.687C378.791 149.2 379.944 151.123 380.023 153.585C380.071 155.104 379.661 156.425 378.872 157.578C378.382 158.295 377.745 158.947 376.981 159.542C378.21 159.437 379.352 158.987 380.311 158.299C382.172 156.969 383.353 154.752 383.183 152.447C383.099 151.319 382.878 150.201 382.725 149.078C382.425 146.886 382.399 144.701 383.053 142.561C383.962 139.588 385.865 137.667 388.982 137.078C389.218 137.033 389.46 137.028 389.813 136.994C389.221 137.706 388.683 138.301 388.204 138.939C387.34 140.093 386.787 141.377 386.728 142.839C386.662 144.51 387.651 145.429 389.294 145.095C390.091 144.933 390.891 144.608 391.594 144.193C396.917 141.052 399.395 134.997 397.964 128.739C397.903 128.47 397.841 128.201 397.889 127.855C398.023 128.036 398.191 128.2 398.284 128.4C399.036 130.015 399.973 131.579 400.48 133.271C402.098 138.67 400.244 143.113 396.311 146.84C395.032 148.05 393.593 149.088 392.283 150.269C391.281 151.172 390.506 152.267 390.177 153.613C389.919 154.664 389.9 155.707 390.8 156.474C391.724 157.261 392.759 157.101 393.776 156.609C395.389 155.829 395.917 154.819 395.777 152.796C396.533 153.106 397.23 154.229 397.328 155.324C397.442 156.597 396.982 157.695 396.259 158.708L396.26 158.709Z" fill="#FE5200" fill-opacity="0.5"/>
<path d="M65.4587 -7.03377C64.4871 -5.67071 63.0987 -4.88202 61.6359 -4.16283C60.6952 -3.69969 59.7446 -3.25076 58.8007 -2.7892C57.4358 -2.12238 56.0854 -1.42924 54.8003 -0.63291C52.554 0.760534 51.0684 2.83737 50.925 5.60715C50.8895 6.28018 51.0444 6.96298 51.2361 7.65236L44.4407 8.079C44.5484 5.89066 44.9855 3.75605 46.0462 1.73628C46.4291 1.00749 46.9147 0.332137 47.352 -0.36743C45.235 1.54588 43.6662 3.68114 42.5704 6.02176C41.8132 4.78299 41.0966 3.52632 40.4259 2.25124C40.6448 1.8446 40.85 1.43111 41.0255 1.00736C41.3469 0.22934 41.5733 -0.625286 41.6345 -1.46124C41.6788 -2.05873 41.3819 -2.681 41.2372 -3.2922C41.1619 -3.27852 41.087 -3.26537 41.0123 -3.25143C40.4057 -2.23892 39.8428 -1.19535 39.2052 -0.203636L37.0463 -5.52896C38.152 -6.77278 39.5168 -7.79257 40.7827 -8.89291C41.4657 -9.48716 42.2256 -9.99481 42.9006 -10.5983C42.9386 -10.632 42.9752 -10.6657 43.0131 -10.6993C45.1311 -12.6213 46.6581 -14.8045 45.8698 -18.0555C47.9899 -16.5429 49.1426 -14.62 49.2216 -12.1576C49.27 -10.6391 48.8599 -9.31808 48.0709 -8.16451C47.5808 -7.44731 46.9437 -6.79515 46.1798 -6.20064C47.4089 -6.30525 48.5505 -6.756 49.5102 -7.4434C51.3707 -8.77398 52.5523 -10.9906 52.3817 -13.2953C52.2983 -14.4237 52.0773 -15.5414 51.9236 -16.6648C51.6235 -18.8566 51.5977 -21.0421 52.2523 -23.1816C53.1608 -26.1548 55.0637 -28.0752 58.1807 -28.665C58.4166 -28.7094 58.659 -28.7144 59.0122 -28.7489C58.4195 -28.0369 57.8819 -27.4416 57.4032 -26.8036C56.5393 -25.6501 55.9857 -24.3654 55.9266 -22.904C55.8604 -21.2329 56.85 -20.3136 58.4931 -20.6475C59.2895 -20.8095 60.0901 -21.1348 60.7928 -21.5492C66.1157 -24.6906 68.5934 -30.7458 67.1627 -37.0036C67.1016 -37.2726 67.0397 -37.5413 67.088 -37.8872C67.2216 -37.7063 67.3894 -37.5426 67.4827 -37.3431C68.2351 -35.7274 69.1721 -34.164 69.6791 -32.4718C71.2971 -27.0731 69.4424 -22.63 65.5095 -18.9028C64.2311 -17.6922 62.7915 -16.6545 61.4821 -15.4739C60.4797 -14.5702 59.7053 -13.4758 59.3761 -12.13C59.1174 -11.0783 59.0989 -10.0352 59.9986 -9.26832C60.9224 -8.48146 61.9583 -8.64137 62.9748 -9.13372C64.5875 -9.91343 65.1162 -10.9241 64.9763 -12.9461C65.7323 -12.6365 66.4292 -11.5135 66.5264 -10.4191C66.6404 -9.14565 66.1812 -8.04811 65.4579 -7.03482L65.4587 -7.03377Z" fill="#FE5200" fill-opacity="0.5"/>
<path d="M98.5388 9.54045C97.5672 10.9035 96.1788 11.6922 94.716 12.4114C93.7753 12.8745 92.8247 13.3235 91.8808 13.785C90.5159 14.4518 89.1655 15.145 87.8804 15.9413C85.6341 17.3348 84.1485 19.4116 84.0051 22.1814C83.9697 22.8544 84.1245 23.5372 84.3162 24.2266L77.5208 24.6532C77.6285 22.4649 78.0656 20.3303 79.1263 18.3105C79.5092 17.5817 79.9948 16.9064 80.4321 16.2068C78.3151 18.1201 76.7463 20.2554 75.6505 22.596C74.8933 21.3572 74.1767 20.1005 73.506 18.8255C73.7249 18.4188 73.9301 18.0053 74.1056 17.5816C74.427 16.8036 74.6534 15.9489 74.7146 15.113C74.7589 14.5155 74.462 13.8932 74.3173 13.282C74.242 13.2957 74.1671 13.3088 74.0924 13.3228C73.4858 14.3353 72.9229 15.3789 72.2853 16.3706L70.1264 11.0453C71.2321 9.80144 72.5969 8.78165 73.8628 7.68131C74.5458 7.08706 75.3057 6.57941 75.9808 5.97594C76.0187 5.94225 76.0553 5.90857 76.0932 5.87488C78.2112 3.95289 79.7382 1.76972 78.9499 -1.48133C81.07 0.0313521 82.2227 1.95426 82.3017 4.41664C82.3501 5.93512 81.94 7.25614 81.151 8.40971C80.6609 9.12691 80.0239 9.77907 79.2599 10.3736C80.489 10.269 81.6306 9.81822 82.5903 9.13082C84.4508 7.80024 85.6324 5.5836 85.4618 3.27888C85.3784 2.15047 85.1574 1.03284 85.0037 -0.0905685C84.7037 -2.28238 84.6778 -4.46785 85.3324 -6.60743C86.2409 -9.58058 88.1438 -11.501 91.2608 -12.0908C91.4967 -12.1352 91.7391 -12.1402 92.0923 -12.1746C91.4996 -11.4627 90.962 -10.8674 90.4833 -10.2294C89.6194 -9.07586 89.0658 -7.79118 89.0067 -6.32983C88.9405 -4.65869 89.9301 -3.73943 91.5732 -4.07325C92.3696 -4.2353 93.1702 -4.56053 93.8729 -4.97501C99.1958 -8.11635 101.674 -14.1715 100.243 -20.4293C100.182 -20.6984 100.12 -20.9671 100.168 -21.313C100.302 -21.1321 100.469 -20.9684 100.563 -20.7688C101.315 -19.1532 102.252 -17.5898 102.759 -15.8976C104.377 -10.4989 102.522 -6.05578 98.5896 -2.32862C97.3112 -1.11799 95.8716 -0.0803161 94.5622 1.1003C93.5598 2.00406 92.7854 3.0984 92.4562 4.44417C92.1975 5.49594 92.179 6.53905 93.0787 7.3059C94.0025 8.09276 95.0384 7.93285 96.0549 7.4405C97.6676 6.66079 98.1964 5.65012 98.0564 3.62809C98.8124 3.93772 99.5093 5.06067 99.6065 6.15513C99.7205 7.42857 99.2613 8.52611 98.538 9.5394L98.5388 9.54045Z" fill="#FE5200" fill-opacity="0.5"/>
</svg>
