<svg width="18" height="24" viewBox="0 0 18 24" fill="none" xmlns="http://www.w3.org/2000/svg">
<path d="M0.838704 16.7762L5.8219 17.7922L6.31496 17.8928L6.41234 17.3991L8.20005 8.33489L8.37639 7.44078L7.52754 7.77242L5.52754 8.55382L5.2095 8.67808V9.01954V12.3372H3.97486V7.89961L9.38069 5.61025C9.54546 5.60318 9.68319 5.58115 9.79715 5.56292L9.80518 5.56164C9.9454 5.53922 10.0496 5.52326 10.1788 5.52326C10.7479 5.52326 11.2726 5.83203 11.6459 6.40906L12.756 8.16136C13.6794 9.7707 15.4133 10.9254 17.5 11.0856V12.3212C16.5786 12.2615 15.6742 12.0354 14.8311 11.6525C13.8361 11.2007 12.9496 10.5409 12.2315 9.71781L11.5665 8.95559L11.3648 9.9468L10.6832 13.2956L10.6279 13.5676L10.8294 13.7584L13.0307 15.843V23.5H11.7961V17.3023V17.0872L11.6399 16.9393L9.28235 14.7067L8.64627 14.1044L8.45111 14.9584L7.44187 19.3747L0.588724 18.025L0.838704 16.7762ZM13.5894 2.23256C13.5894 3.16318 12.7953 3.96512 11.8547 3.96512C10.8951 3.96512 10.1201 3.16644 10.1201 2.23256C10.1201 1.26054 10.8886 0.5 11.8547 0.5C12.315 0.5 12.7562 0.68265 13.0815 1.00762C13.4067 1.33257 13.5894 1.77321 13.5894 2.23256Z" stroke="black"/>
</svg>
