<svg width="25" height="24" viewBox="0 0 25 24" fill="none" xmlns="http://www.w3.org/2000/svg">
<path d="M16.6818 15.6667C16.6818 14.509 13.4054 13.5714 9.36364 13.5714M16.6818 15.6667C16.6818 16.8243 13.4054 17.7619 9.36364 17.7619C5.32191 17.7619 2.04545 16.8243 2.04545 15.6667M16.6818 15.6667V20.8388C16.6818 22.032 13.4054 23 9.36364 23C5.32191 23 2.04545 22.033 2.04545 20.8388V15.6667M16.6818 15.6667C20.6796 15.6667 24 14.6327 24 13.5714V3.09524M9.36364 13.5714C5.32191 13.5714 2.04545 14.509 2.04545 15.6667M9.36364 13.5714C4.74482 13.5714 1 12.5374 1 11.4762V6.2381M9.36364 4.14286C4.74482 4.14286 1 5.08048 1 6.2381M1 6.2381C1 7.39571 4.74482 8.33333 9.36364 8.33333C9.36364 9.39457 12.7645 10.4286 16.7623 10.4286C20.7591 10.4286 24 9.39457 24 8.33333M24 3.09524C24 1.93762 20.7591 1 16.7623 1C12.7645 1 9.52464 1.93762 9.52464 3.09524M24 3.09524C24 4.25286 20.7591 5.19048 16.7623 5.19048C12.7655 5.19048 9.52464 4.25286 9.52464 3.09524M9.52464 3.09524V13.7453" stroke="black"/>
</svg>
