<svg width="26" height="55" viewBox="0 0 26 55" fill="none" xmlns="http://www.w3.org/2000/svg">
<path d="M25.4562 28.8146C25.1982 30.4685 24.3101 31.7955 23.3245 33.0938C22.6909 33.9292 22.0421 34.7565 21.405 35.5919C20.4834 36.7995 19.5865 38.0242 18.7943 39.3118C17.4102 41.5638 17.0123 44.0861 18.1248 46.6267C18.3946 47.2443 13.7483 54.4695 14.2285 55L12.8142 52C6.59305 47.2074 11.9854 47.6323 12.0289 45.3514C12.0448 44.5283 14.7048 46.1727 14.7824 45.3514C13.7468 48.0103 10.7723 48.1563 10.8411 50.7398C9.60919 49.9715 8.40552 49.169 7.23476 48.3294C7.24827 47.8678 7.24651 47.4062 7.2136 46.9487C7.15247 46.1092 6.97204 45.2437 6.65231 44.4688C6.42427 43.9148 4.90306 42.9816 4.49988 42.5C4.43875 42.5459 9.04086 42 5.29407 43.147C9.40407 44.4688 14.1186 53.3278 13.9928 54.5C13.9928 54.5 0.296578 44.4947 0.727974 42.8874C1.15937 41.2801 1.92283 39.7569 2.5617 38.2061C2.90611 37.3689 3.35807 36.5746 3.69132 35.7327C3.71013 35.6856 3.72776 35.639 3.74656 35.5919C4.77921 32.9248 5.16653 30.2889 3.00544 27.7354C5.57853 28.1381 7.47044 29.341 8.64414 31.507C9.36764 32.843 9.59274 34.2077 9.40407 35.5925C9.28711 36.4533 9.00971 37.3217 8.593 38.1955C9.64505 37.5514 10.4638 36.637 11.0139 35.5925C12.0812 33.5695 12.1447 31.0584 10.9598 29.0742C10.3797 28.1028 9.68148 27.2025 9.04086 26.267C7.79075 24.4418 6.78867 22.4994 6.41546 20.2933C5.8959 17.2282 6.73695 14.6588 9.25949 12.7353C9.45051 12.5898 9.66503 12.4768 9.96536 12.2878C9.75436 13.1898 9.54043 13.9628 9.3982 14.7477C9.14253 16.166 9.22305 17.5626 9.82489 18.8956C10.5143 20.4193 11.8108 20.7979 13.1303 19.7634C13.7697 19.2618 14.3398 18.6124 14.7824 17.927C18.1342 12.7341 17.637 6.21049 13.5546 1.25657C13.3795 1.04344 13.2038 0.830889 13.0921 0.5C13.2925 0.601857 13.5158 0.673099 13.6886 0.809694C15.0851 1.91717 16.6232 2.89512 17.8345 4.181C21.6994 8.28297 22.0315 13.0862 20.1848 18.1802C19.5842 19.8352 18.7619 21.4079 18.1201 23.0499C17.6288 24.307 17.4266 25.6323 17.7352 26.9829C17.975 28.0392 18.4258 28.98 19.5736 29.2626C20.752 29.5523 21.6066 28.9453 22.2948 28.0498C23.3874 26.6303 23.4074 25.4898 22.3765 23.7447C23.1911 23.6829 24.3172 24.3747 24.8943 25.3096C25.5667 26.3971 25.6478 27.5841 25.455 28.814L25.4562 28.8146Z" fill="#FE5200"/>
</svg>
