<svg width="240" height="270" viewBox="0 0 240 270" fill="none" xmlns="http://www.w3.org/2000/svg">
<path d="M175.585 127.25C174.426 134.683 170.435 140.647 166.005 146.482C163.158 150.236 160.242 153.954 157.378 157.709C153.237 163.136 149.206 168.64 145.646 174.426C139.425 184.548 137.637 195.883 142.637 207.301C143.849 210.076 145.846 212.508 148.004 214.892L121.559 230.287C117.586 221.277 115.045 211.82 115.241 201.569C115.312 197.87 115.904 194.179 116.252 190.488C111.598 202.437 109.594 214.175 109.903 225.786C104.366 222.333 98.9568 218.726 93.6952 214.953C93.756 212.879 93.748 210.804 93.6001 208.748C93.3254 204.975 92.5145 201.085 91.0776 197.603C90.0528 195.113 87.6069 193.211 85.7949 191.046C85.5202 191.253 85.2455 191.456 84.9734 191.663C84.5746 196.952 84.4135 202.279 83.8482 207.547L64.4527 190.496C66.3915 183.272 69.8226 176.427 72.6937 169.457C74.2416 165.695 76.2728 162.125 77.7704 158.341C77.855 158.13 77.9342 157.921 78.0187 157.709C82.6596 145.722 84.4003 133.876 74.688 122.4C86.2519 124.21 94.7544 129.616 100.029 139.351C103.281 145.355 104.292 151.488 103.444 157.711C102.919 161.58 101.672 165.483 99.7994 169.41C104.527 166.515 108.207 162.406 110.679 157.711C115.476 148.62 115.761 137.334 110.436 128.417C107.829 124.051 104.691 120.006 101.812 115.801C96.194 107.598 91.6904 98.869 90.0132 88.9543C87.6782 75.1791 91.458 63.6318 102.795 54.9872C103.653 54.3336 104.617 53.8256 105.967 52.9762C105.019 57.0299 104.057 60.5042 103.418 64.0313C102.269 70.4056 102.631 76.682 105.336 82.6726C108.434 89.5206 114.261 91.222 120.191 86.5729C123.065 84.3185 125.627 81.3999 127.616 78.3199C142.679 54.9819 140.445 25.6639 122.098 3.40015C121.311 2.44229 120.521 1.48707 120.019 0C120.92 0.457764 121.923 0.777934 122.7 1.39181C128.976 6.369 135.888 10.7641 141.332 16.543C158.702 34.9779 160.194 56.5642 151.895 79.4577C149.196 86.8957 145.5 93.9633 142.616 101.343C140.408 106.992 139.499 112.949 140.886 119.019C141.963 123.766 143.989 127.994 149.148 129.264C154.444 130.566 158.284 127.838 161.378 123.813C166.288 117.434 166.378 112.308 161.745 104.465C165.406 104.188 170.466 107.297 173.06 111.499C176.082 116.386 176.446 121.72 175.58 127.248L175.585 127.25Z" fill="#FE5200"/>
<path d="M169.175 180.74C166.824 187.167 166.256 193.576 166.842 199.966C161.137 204.943 155.194 209.661 149.042 214.141C148.725 204.311 150.907 195.484 157.291 187.932C160.382 184.278 164.09 181.362 168.81 180.02C168.995 180.37 169.225 180.605 169.175 180.737V180.74Z" fill="#FE5200"/>
<path d="M239.137 165.761C232.111 177.459 224.337 188.342 215.871 198.468C204.107 212.535 191 225.14 176.711 236.434C176.602 236.526 176.491 236.611 176.383 236.693C175.95 237.039 175.517 237.378 175.084 237.714C160.229 249.283 144.116 259.462 126.916 268.419C123.812 270.035 118.434 270.067 115.328 268.469C97.9901 259.555 81.7985 249.346 66.888 237.714C53.6337 227.374 41.3909 215.911 30.2576 203.221C20.6034 192.221 11.7786 180.301 3.84925 167.399C2.83232 165.742 1.93954 164.009 1.02563 162.294C-1.33046 157.883 45.1258 137.959 50.1867 137.729C54.0642 137.551 39.8801 146.032 45.2922 146.032C52.8307 143.799 44.69 150.482 40.9498 157.709C40.3767 158.812 39.9118 159.926 39.6159 161.024C39.0428 163.152 39.1247 165.213 40.3767 166.994C47.3868 176.975 55.1921 186.111 63.6471 194.528C69.8543 200.707 76.4128 206.499 83.2724 211.952C86.6031 214.604 90.0052 217.17 93.4707 219.663C98.8934 223.569 104.475 227.291 110.191 230.853C111.989 231.972 113.804 233.078 115.629 234.169C117.602 235.349 120.986 235.587 123.794 235.01C124.927 234.777 125.967 234.412 126.784 233.922C141.311 225.233 154.954 215.527 167.458 204.559C181.283 192.441 193.713 178.784 204.4 163.265C205.216 162.08 204.743 160.725 203.526 159.296C203.079 158.775 202.535 158.241 201.914 157.706C195.86 152.451 182.804 146.725 187.749 145.013C191.925 143.566 176.645 137.654 181.085 137.729C190.847 137.893 244.332 157.108 239.139 165.763L239.137 165.761Z" fill="#0985C3"/>
</svg>
