<svg width="21" height="20" viewBox="0 0 21 20" fill="none" xmlns="http://www.w3.org/2000/svg">
<g id="icon-search" clip-path="url(#clip0_17_293)">
<path id="Vector" fill-rule="evenodd" clip-rule="evenodd" d="M15.0922 16.3628L18.3198 19.5529C18.787 20.0148 19.5413 20.0105 20.0032 19.543C20.4651 19.0758 20.4608 18.3213 19.9935 17.8596L16.7747 14.6781C17.9463 13.1495 18.6425 11.2386 18.6425 9.16645C18.6425 4.15998 14.5779 0.0952148 9.57124 0.0952148C4.56476 0.0952148 0.5 4.15998 0.5 9.16645C0.5 14.1731 4.56476 18.2377 9.57124 18.2377C11.648 18.2377 13.5627 17.5385 15.0922 16.3628ZM9.57124 2.47617C13.2638 2.47617 16.2615 5.47407 16.2615 9.16645C16.2615 12.859 13.2638 15.8567 9.57124 15.8567C5.87886 15.8567 2.88095 12.859 2.88095 9.16645C2.88095 5.47407 5.87886 2.47617 9.57124 2.47617Z" fill="white"/>
</g>
<defs>
<clipPath id="clip0_17_293">
<rect width="20" height="20" fill="white" transform="translate(0.5)"/>
</clipPath>
</defs>
</svg>
