<svg width="24" height="24" viewBox="0 0 24 24" fill="none" xmlns="http://www.w3.org/2000/svg">
<path d="M20.3106 23.5H13.7712V17.7194V17.2194H13.2712H10.3062H9.80618V17.7194V23.5H3.69042C3.52465 23.5 3.34327 23.3503 3.34327 23.1028V14.8679V14.3679H2.84327H1.69431C1.0626 14.3679 0.5 13.8145 0.5 13.0735C0.5 12.7213 0.633368 12.388 0.861256 12.1466L11.7656 0.606232L11.7661 0.605744C11.7996 0.570199 11.8378 0.543637 11.8777 0.526091C11.9176 0.508581 11.9592 0.5 12.0005 0.5C12.0418 0.5 12.0834 0.508581 12.1233 0.52609C12.1632 0.543636 12.2014 0.570197 12.2349 0.605745L12.2354 0.606232L23.1397 12.1466C23.6197 12.655 23.6198 13.4899 23.1417 13.9983L23.141 13.9991C22.9158 14.2396 22.6155 14.3679 22.3067 14.3679H21.1577H20.6577V14.8679V23.1028C20.6577 23.3503 20.4763 23.5 20.3106 23.5Z" stroke="black"/>
</svg>
