<svg width="24" height="24" viewBox="0 0 24 24" fill="none" xmlns="http://www.w3.org/2000/svg">
<path d="M7.16667 5.33333C7.16667 4.05145 7.67589 2.82208 8.58232 1.91565C9.48874 1.00922 10.7181 0.5 12 0.5C13.2819 0.5 14.5113 1.00922 15.4177 1.91565L15.7712 1.5621L15.4177 1.91565C16.3241 2.82208 16.8333 4.05145 16.8333 5.33333C16.8333 6.61521 16.3241 7.84459 15.4177 8.75102C14.5113 9.65744 13.2819 10.1667 12 10.1667C10.7181 10.1667 9.48874 9.65744 8.58232 8.75102C7.67589 7.84459 7.16667 6.61521 7.16667 5.33333ZM2.30617 15.6395C3.46265 14.483 5.03116 13.8333 6.66667 13.8333H17.3333C18.9688 13.8333 20.5374 14.483 21.6938 15.6395C22.8503 16.796 23.5 18.3645 23.5 20C23.5 20.9283 23.1313 21.8185 22.4749 22.4749C21.8185 23.1313 20.9283 23.5 20 23.5H4C3.07174 23.5 2.1815 23.1313 1.52513 22.4749C0.868749 21.8185 0.5 20.9283 0.5 20C0.5 18.3645 1.1497 16.796 2.30617 15.6395Z" stroke="black"/>
</svg>
