<svg width="21" height="20" viewBox="0 0 21 20" fill="none" xmlns="http://www.w3.org/2000/svg">
<g id="icon-profil" clip-path="url(#clip0_17_292)">
<path id="Vector" fill-rule="evenodd" clip-rule="evenodd" d="M0.670262 18.4218C0.468444 18.7112 0.444201 19.0889 0.607383 19.4017C0.770565 19.7145 1.09405 19.9108 1.44693 19.9108H19.4897C19.8424 19.9108 20.166 19.7145 20.3292 19.4017C20.4924 19.0889 20.4681 18.7112 20.2662 18.4218C17.7903 14.8736 14.3019 12.7062 10.4683 12.7062C6.63466 12.7062 3.14617 14.8736 0.670262 18.4218ZM3.41193 18.0168C5.35966 15.8889 7.80102 14.6002 10.4683 14.6002C13.1356 14.6002 15.5768 15.8889 17.5247 18.0168H3.41193ZM10.4321 0C7.1792 0 4.53829 2.64091 4.53829 5.89379C4.53829 9.14651 7.1792 11.7874 10.4321 11.7874C13.6848 11.7874 16.3257 9.14651 16.3257 5.89379C16.3257 2.64091 13.6848 0 10.4321 0V0ZM10.4321 1.89394C12.6395 1.89394 14.4318 3.68621 14.4318 5.89379C14.4318 8.10121 12.6395 9.89349 10.4321 9.89349C8.2245 9.89349 6.43223 8.10121 6.43223 5.89379C6.43223 3.68621 8.2245 1.89394 10.4321 1.89394Z" fill="white"/>
</g>
<defs>
<clipPath id="clip0_17_292">
<rect width="20" height="20" fill="white" transform="translate(0.5)"/>
</clipPath>
</defs>
</svg>
