<svg width="32" height="32" viewBox="0 0 32 32" fill="none" xmlns="http://www.w3.org/2000/svg">
<g id="icon-order" clip-path="url(#clip0_17_498)">
<path id="Vector" fill-rule="evenodd" clip-rule="evenodd" d="M6.81958 7.15587H1.49254C0.668179 7.15587 0 7.82405 0 8.64841V29.9487C0 30.7728 0.668179 31.4412 1.49254 31.4412H30.278C31.1023 31.4412 31.7705 30.7728 31.7705 29.9487V8.64841C31.7705 7.82405 31.1023 7.15587 30.278 7.15587H24.9507C23.7509 3.2896 20.144 0.477661 15.8851 0.477661C11.6265 0.477661 8.01958 3.2896 6.81958 7.15587ZM23.7368 10.1409H28.7854V28.4562H2.98507V10.1409H7.98448L8.42579 10.1421C10.7159 10.1464 21.3913 10.1581 23.4424 10.146C23.5608 10.1452 23.6595 10.1433 23.7368 10.1409ZM10.0184 7.15587C11.0677 4.97151 13.3017 3.46274 15.8851 3.46274C18.4688 3.46274 20.703 4.97175 21.7524 7.15611L10.0184 7.15587Z" fill="white"/>
</g>
<defs>
<clipPath id="clip0_17_498">
<rect width="32" height="32" fill="white"/>
</clipPath>
</defs>
</svg>
