<svg width="15" height="22" viewBox="0 0 15 22" fill="none" xmlns="http://www.w3.org/2000/svg">
<path d="M11.5435 5.34286C11.5435 7.41358 9.78577 9.18572 7.50002 9.18572C5.21428 9.18572 3.45654 7.41358 3.45654 5.34286C3.45654 3.27214 5.21428 1.5 7.50002 1.5C9.78577 1.5 11.5435 3.27214 11.5435 5.34286Z" stroke="#FBFBFB" stroke-width="3"/>
<path d="M3.19394 14.0089C3.33865 13.3131 3.95181 12.8143 4.66252 12.8143H10.3375C11.0482 12.8143 11.6614 13.3131 11.8061 14.0089L12.7805 18.6946C12.9742 19.626 12.2632 20.5001 11.3119 20.5001H3.68807C2.73682 20.5001 2.02581 19.626 2.21949 18.6946L3.19394 14.0089Z" stroke="#FBFBFB" stroke-width="3"/>
</svg>
