<svg width="30" height="24" viewBox="0 0 30 24" fill="none" xmlns="http://www.w3.org/2000/svg">
<mask id="path-1-inside-1_2023_3674" fill="white">
<ellipse cx="12.9553" cy="21.4254" rx="2.53855" ry="2.42818"/>
</mask>
<path d="M12.4938 21.4254C12.4938 21.2234 12.5843 21.0627 12.6767 20.9744C12.7666 20.8884 12.8715 20.8536 12.9553 20.8536V26.8536C15.8871 26.8536 18.4938 24.5476 18.4938 21.4254H12.4938ZM12.9553 20.8536C13.0391 20.8536 13.144 20.8884 13.2339 20.9744C13.3263 21.0627 13.4167 21.2234 13.4167 21.4254H7.41675C7.41675 24.5476 10.0235 26.8536 12.9553 26.8536V20.8536ZM13.4167 21.4254C13.4167 21.6273 13.3263 21.788 13.2339 21.8763C13.144 21.9624 13.0391 21.9972 12.9553 21.9972V15.9972C10.0235 15.9972 7.41675 18.3032 7.41675 21.4254H13.4167ZM12.9553 21.9972C12.8715 21.9972 12.7666 21.9624 12.6767 21.8763C12.5843 21.788 12.4938 21.6273 12.4938 21.4254H18.4938C18.4938 18.3032 15.8871 15.9972 12.9553 15.9972V21.9972Z" fill="#FBFBFB" mask="url(#path-1-inside-1_2023_3674)"/>
<mask id="path-3-inside-2_2023_3674" fill="white">
<ellipse cx="23.8347" cy="21.4254" rx="2.53855" ry="2.42818"/>
</mask>
<path d="M23.3732 21.4254C23.3732 21.2234 23.4637 21.0627 23.5561 20.9744C23.646 20.8884 23.7509 20.8536 23.8347 20.8536V26.8536C26.7665 26.8536 29.3732 24.5476 29.3732 21.4254H23.3732ZM23.8347 20.8536C23.9185 20.8536 24.0233 20.8884 24.1133 20.9744C24.2057 21.0627 24.2961 21.2234 24.2961 21.4254H18.2961C18.2961 24.5476 20.9029 26.8536 23.8347 26.8536V20.8536ZM24.2961 21.4254C24.2961 21.6273 24.2057 21.788 24.1133 21.8763C24.0233 21.9624 23.9185 21.9972 23.8347 21.9972V15.9972C20.9029 15.9972 18.2961 18.3032 18.2961 21.4254H24.2961ZM23.8347 21.9972C23.7509 21.9972 23.646 21.9624 23.5561 21.8763C23.4637 21.788 23.3732 21.6273 23.3732 21.4254H29.3732C29.3732 18.3032 26.7665 15.9972 23.8347 15.9972V21.9972Z" fill="#FBFBFB" mask="url(#path-3-inside-2_2023_3674)"/>
<path d="M11.039 16.417C11.2256 17.0571 11.8123 17.4972 12.479 17.4972H24.3112C24.9779 17.4972 25.5646 17.0571 25.7512 16.417L27.4404 10.623C27.7203 9.66305 27.0003 8.70318 26.0004 8.70318H10.7898C9.78988 8.70318 9.06989 9.66305 9.34976 10.623L11.039 16.417Z" stroke="#FBFBFB" stroke-width="3"/>
<path d="M2.07568 0.5C1.24726 0.5 0.575684 1.17157 0.575684 2C0.575684 2.82843 1.24726 3.5 2.07568 3.5V0.5ZM11.8526 17.176L7.56752 2.98807L4.69565 3.85544L8.9807 18.0434L11.8526 17.176ZM4.217 0.5H2.07568V3.5H4.217V0.5ZM7.56752 2.98807C7.12134 1.51075 5.76023 0.5 4.217 0.5V3.5C4.43746 3.5 4.63191 3.64439 4.69565 3.85544L7.56752 2.98807Z" fill="#FBFBFB"/>
</svg>
