<svg width="17" height="18" viewBox="0 0 17 18" fill="none" xmlns="http://www.w3.org/2000/svg">
<path d="M11.4253 2.52056C11.4253 2.42507 11.3899 2.33349 11.3269 2.26597C11.2639 2.19844 11.1784 2.16051 11.0893 2.16051H9.40904C8.56295 2.11535 7.73456 2.43083 7.10489 3.03802C6.47521 3.64521 6.09543 4.49474 6.04853 5.401V7.34529H4.36828C4.27915 7.34529 4.19368 7.38323 4.13065 7.45075C4.06763 7.51827 4.03223 7.60985 4.03223 7.70535V9.57763C4.03223 9.67312 4.06763 9.7647 4.13065 9.83223C4.19368 9.89975 4.27915 9.93768 4.36828 9.93768H6.04853V14.7624C6.04853 14.8579 6.08394 14.9495 6.14696 15.017C6.20998 15.0845 6.29546 15.1225 6.38458 15.1225H8.40089C8.49001 15.1225 8.57549 15.0845 8.63851 15.017C8.70153 14.9495 8.73694 14.8579 8.73694 14.7624V9.93768H10.4978C10.5726 9.93883 10.6455 9.91326 10.7052 9.865C10.7648 9.81675 10.8077 9.74857 10.8272 9.67124L11.3111 7.79896C11.3245 7.74576 11.3263 7.68998 11.3163 7.63592C11.3064 7.58186 11.2851 7.53096 11.2539 7.48713C11.2227 7.44331 11.1826 7.40773 11.1366 7.38314C11.0906 7.35855 11.0399 7.3456 10.9885 7.34529H8.73694V5.401C8.75365 5.22275 8.83178 5.05759 8.95606 4.93775C9.08034 4.81791 9.24184 4.752 9.40904 4.7529H11.0893C11.1784 4.7529 11.2639 4.71497 11.3269 4.64744C11.3899 4.57992 11.4253 4.48834 11.4253 4.39285V2.52056Z" fill="#F2F2F2"/>
</svg>
