<svg width="55" height="39" viewBox="0 0 55 39" fill="none" xmlns="http://www.w3.org/2000/svg">
<path d="M54.125 13.1875C54.125 15.3125 53.6875 17.5208 52.8125 19.8125C51.9375 22.1458 50.6458 24.4375 48.9375 26.6875C47.2292 28.9375 45.0833 31.1042 42.5 33.1875C39.9167 35.3125 36.9375 37.2292 33.5625 38.9375L32.625 37.9375C35.5 34.7292 37.875 31.7292 39.75 28.9375C41.5833 26.1875 42.9792 23.625 43.9375 21.25C41.9792 21.125 40.1458 20.7708 38.4375 20.1875C36.6875 19.6458 35.1875 18.8958 33.9375 17.9375C32.6458 16.9792 31.6458 15.8542 30.9375 14.5625C30.1875 13.2708 29.8125 11.8333 29.8125 10.25C29.8125 7.37501 30.9375 4.93751 33.1875 2.93751C35.4375 0.97918 38.25 1.33514e-05 41.625 1.33514e-05C43.2917 1.33514e-05 44.8958 0.333347 46.4375 1.00001C47.9375 1.70835 49.2708 2.66668 50.4375 3.87501C51.5625 5.08335 52.4583 6.47918 53.125 8.06251C53.7917 9.68751 54.125 11.3958 54.125 13.1875ZM24.3125 13.1875C24.3125 15.3125 23.875 17.5208 23 19.8125C22.125 22.1458 20.8333 24.4375 19.125 26.6875C17.4167 28.9375 15.2708 31.1042 12.6875 33.1875C10.1042 35.3125 7.125 37.2292 3.75 38.9375L2.8125 37.9375C5.6875 34.7292 8.0625 31.7292 9.9375 28.9375C11.7708 26.1875 13.1667 23.625 14.125 21.25C12.1667 21.125 10.3333 20.7708 8.625 20.1875C6.875 19.6458 5.375 18.8958 4.125 17.9375C2.83334 16.9792 1.83334 15.8542 1.125 14.5625C0.375005 13.2708 5.00679e-06 11.8333 5.00679e-06 10.25C5.00679e-06 7.37501 1.125 4.93751 3.375 2.93751C5.625 0.97918 8.4375 1.33514e-05 11.8125 1.33514e-05C13.4792 1.33514e-05 15.0833 0.333347 16.625 1.00001C18.125 1.70835 19.4583 2.66668 20.625 3.87501C21.75 5.08335 22.6458 6.47918 23.3125 8.06251C23.9792 9.68751 24.3125 11.3958 24.3125 13.1875Z" fill="#A65ACB"/>
</svg>
