<svg width="13" height="14" viewBox="0 0 13 14" fill="none" xmlns="http://www.w3.org/2000/svg">
<path d="M9.82929 2.65389C9.67889 2.65389 9.53187 2.70167 9.40681 2.7912C9.28176 2.88072 9.1843 3.00797 9.12674 3.15685C9.06918 3.30572 9.05412 3.46954 9.08347 3.62759C9.11281 3.78563 9.18523 3.93081 9.29158 4.04475C9.39793 4.1587 9.53343 4.2363 9.68094 4.26773C9.82845 4.29917 9.98135 4.28304 10.1203 4.22137C10.2592 4.1597 10.378 4.05528 10.4616 3.92129C10.5451 3.78731 10.5897 3.62978 10.5897 3.46864C10.5897 3.25255 10.5096 3.04532 10.367 2.89252C10.2244 2.73973 10.031 2.65389 9.82929 2.65389ZM12.7443 4.29697C12.732 3.73364 12.6335 3.17628 12.4528 2.6471C12.2917 2.19432 12.0409 1.78433 11.7177 1.44534C11.4039 1.09732 11.0204 0.830322 10.5961 0.664536C10.1035 0.465031 9.58269 0.35711 9.05618 0.345425C8.38447 0.304687 8.16901 0.304688 6.44536 0.304688C4.7217 0.304688 4.50625 0.304687 3.83453 0.345425C3.30802 0.35711 2.78725 0.465031 2.29465 0.664536C1.87113 0.832 1.48791 1.09877 1.17301 1.44534C0.848191 1.78154 0.598991 2.19249 0.444257 2.6471C0.258052 3.17488 0.157326 3.73286 0.14642 4.29697C0.108398 5.01667 0.108398 5.24751 0.108398 7.09428C0.108398 8.94105 0.108398 9.1719 0.14642 9.89159C0.157326 10.4557 0.258052 11.0137 0.444257 11.5415C0.598991 11.9961 0.848191 12.407 1.17301 12.7432C1.48791 13.0898 1.87113 13.3566 2.29465 13.524C2.78725 13.7235 3.30802 13.8315 3.83453 13.8431C4.50625 13.8839 4.7217 13.8839 6.44536 13.8839C8.16901 13.8839 8.38447 13.8839 9.05618 13.8431C9.58269 13.8315 10.1035 13.7235 10.5961 13.524C11.0204 13.3582 11.4039 13.0912 11.7177 12.7432C12.0423 12.4055 12.2933 11.9951 12.4528 11.5415C12.6335 11.0123 12.732 10.4549 12.7443 9.89159C12.7443 9.1719 12.7823 8.94105 12.7823 7.09428C12.7823 5.24751 12.7823 5.01667 12.7443 4.29697ZM11.6036 9.81012C11.599 10.2411 11.5262 10.6681 11.3882 11.073C11.287 11.3685 11.1245 11.6354 10.9129 11.8538C10.7074 12.0782 10.4587 12.252 10.1842 12.363C9.80629 12.5109 9.40774 12.5889 9.00549 12.5939C8.37179 12.6278 8.13732 12.6346 6.4707 12.6346C4.80408 12.6346 4.56962 12.6346 3.93592 12.5939C3.51825 12.6022 3.10235 12.5333 2.70655 12.3902C2.44406 12.2734 2.20679 12.1001 2.00949 11.8809C1.79915 11.6628 1.63867 11.3956 1.54055 11.1001C1.38584 10.6895 1.30003 10.2528 1.28707 9.81012C1.28707 9.13116 1.24905 8.87994 1.24905 7.09428C1.24905 5.30862 1.24905 5.0574 1.28707 4.37844C1.28991 3.93784 1.36499 3.50119 1.50887 3.08842C1.62043 2.80184 1.79166 2.54638 2.00949 2.34157C2.20201 2.10812 2.43995 1.92271 2.70655 1.7984C3.09282 1.64906 3.49994 1.571 3.91057 1.56755C4.54427 1.56755 4.77874 1.52681 6.44536 1.52681C8.11198 1.52681 8.34644 1.52681 8.98014 1.56755C9.38239 1.5725 9.78094 1.65055 10.1588 1.7984C10.4468 1.91291 10.7052 2.09907 10.9129 2.34157C11.1206 2.55013 11.2828 2.80511 11.3882 3.08842C11.529 3.50186 11.6019 3.93833 11.6036 4.37844C11.6353 5.0574 11.6417 5.30862 11.6417 7.09428C11.6417 8.87994 11.6353 9.13116 11.6036 9.81012ZM6.44536 3.61122C5.80267 3.61256 5.17477 3.81798 4.64101 4.20152C4.10724 4.58506 3.69155 5.12951 3.44648 5.76607C3.2014 6.40263 3.13792 7.10275 3.26407 7.77795C3.39022 8.45315 3.70034 9.07313 4.15523 9.55957C4.61012 10.046 5.18938 10.3771 5.81981 10.5109C6.45024 10.6448 7.10355 10.5754 7.6972 10.3116C8.29085 10.0477 8.79819 9.6013 9.15512 9.02866C9.51205 8.45602 9.70255 7.78288 9.70255 7.09428C9.70339 6.63606 9.61967 6.18217 9.4562 5.75874C9.29272 5.33531 9.05273 4.95068 8.75002 4.62698C8.44732 4.30328 8.08786 4.04689 7.69234 3.87257C7.29682 3.69825 6.87303 3.60943 6.44536 3.61122ZM6.44536 9.35522C6.028 9.35522 5.62001 9.22262 5.27299 8.97418C4.92597 8.72575 4.6555 8.37264 4.49578 7.9595C4.33606 7.54637 4.29427 7.09177 4.3757 6.6532C4.45712 6.21462 4.6581 5.81176 4.95321 5.49556C5.24833 5.17936 5.62433 4.96403 6.03367 4.87679C6.44301 4.78955 6.86731 4.83433 7.2529 5.00545C7.63849 5.17657 7.96806 5.46636 8.19993 5.83817C8.4318 6.20998 8.55556 6.64711 8.55556 7.09428C8.55556 7.39119 8.50098 7.68519 8.39493 7.9595C8.28889 8.23381 8.13345 8.48306 7.9375 8.693C7.74155 8.90295 7.50892 9.06949 7.2529 9.18311C6.99687 9.29674 6.72247 9.35522 6.44536 9.35522Z" fill="#F2F2F2"/>
</svg>
