<svg width="40" height="66" viewBox="0 0 40 66" fill="none" xmlns="http://www.w3.org/2000/svg">
<path d="M37.6567 1.62851C37.1474 1.11497 36.5415 0.707359 35.8739 0.429193C35.2063 0.151028 34.4903 0.0078125 33.7671 0.0078125C33.0438 0.0078125 32.3278 0.151028 31.6602 0.429193C30.9926 0.707359 30.3867 1.11497 29.8774 1.62851L2.48525 29.0239C1.97177 29.5333 1.56421 30.1393 1.28607 30.8069C1.00794 31.4746 0.864746 32.1908 0.864746 32.9141C0.864746 33.6374 1.00794 34.3535 1.28607 35.0212C1.56421 35.6889 1.97177 36.2949 2.48525 36.8042L29.8774 64.1996C30.3867 64.7132 30.9926 65.1208 31.6602 65.3989C32.3278 65.6771 33.0438 65.8203 33.7671 65.8203C34.4903 65.8203 35.2063 65.6771 35.8739 65.3989C36.5415 65.1208 37.1474 64.7132 37.6567 64.1996C38.1702 63.6903 38.5778 63.0843 38.8559 62.4166C39.134 61.7489 39.2772 61.0328 39.2772 60.3095C39.2772 59.5862 39.134 58.87 38.8559 58.2023C38.5778 57.5347 38.1702 56.9287 37.6567 56.4193L14.0995 32.9141L37.6567 9.40881C38.1702 8.89946 38.5778 8.29347 38.8559 7.62579C39.134 6.95812 39.2772 6.24197 39.2772 5.51866C39.2772 4.79536 39.134 4.07921 38.8559 3.41154C38.5778 2.74386 38.1702 2.13786 37.6567 1.62851Z" fill="white"/>
</svg>
