<svg width="17" height="19" viewBox="0 0 17 19" fill="none" xmlns="http://www.w3.org/2000/svg">
<path d="M7.5897 11.5302L11.0779 9.36986L7.5897 7.20954V11.5302ZM15.3592 5.89174C15.4466 6.23019 15.5071 6.68386 15.5474 7.25994C15.5944 7.83603 15.6146 8.33291 15.6146 8.76497L15.6549 9.36986C15.6549 10.9469 15.5474 12.1063 15.3592 12.848C15.1912 13.4961 14.8014 13.9137 14.1965 14.0938C13.8806 14.1874 13.3026 14.2522 12.4154 14.2954C11.5417 14.3458 10.7419 14.3674 10.0025 14.3674L8.93391 14.4106C6.1178 14.4106 4.36362 14.2954 3.67135 14.0938C3.06646 13.9137 2.67664 13.4961 2.50862 12.848C2.42124 12.5095 2.36075 12.0559 2.32043 11.4798C2.27338 10.9037 2.25322 10.4068 2.25322 9.97475L2.21289 9.36986C2.21289 7.79282 2.32043 6.63345 2.50862 5.89174C2.67664 5.24364 3.06646 4.82598 3.67135 4.64595C3.98724 4.55234 4.56525 4.48753 5.45242 4.44432C6.32615 4.39391 7.12595 4.37231 7.86526 4.37231L8.93391 4.3291C11.75 4.3291 13.5042 4.44432 14.1965 4.64595C14.8014 4.82598 15.1912 5.24364 15.3592 5.89174Z" fill="#F2F2F2"/>
</svg>
