<svg width="84" height="64" viewBox="0 0 84 64" fill="none" xmlns="http://www.w3.org/2000/svg">
<path d="M41.8207 41.8286C30.366 52.9066 12.1703 52.9066 0.715626 41.8286C12.1703 30.7506 30.366 30.7506 41.8207 41.8286Z" stroke="#F7F7F7"/>
<path d="M82.2894 41.6641C70.8347 52.7421 52.639 52.7421 41.1844 41.6641C52.639 30.5861 70.8347 30.5861 82.2894 41.6641Z" stroke="#F7F7F7"/>
<path d="M70.4983 12.5042C70.232 28.3963 57.3989 41.2294 41.5068 41.4958C41.7731 25.6037 54.6063 12.7706 70.4983 12.5042Z" stroke="#F7F7F7"/>
<path d="M41.6783 0.713154C52.7563 12.1678 52.7563 30.3635 41.6783 41.8182C30.6004 30.3635 30.6004 12.1678 41.6783 0.713154Z" stroke="#F7F7F7"/>
<path d="M12.5068 12.5042C12.7731 28.3963 25.6063 41.2294 41.4983 41.4958C41.232 25.6037 28.3989 12.7706 12.5068 12.5042Z" stroke="#F7F7F7"/>
<path d="M76.5026 51C76.5026 51.9602 75.724 53.0145 73.9557 54.0743C72.219 55.1153 69.6726 56.0704 66.482 56.8793C60.1084 58.4951 51.2766 59.5 41.5026 59.5C31.7285 59.5 22.8967 58.4951 16.5231 56.8793C13.3325 56.0704 10.7861 55.1153 9.04939 54.0743C7.28111 53.0145 6.50256 51.9602 6.50256 51C6.50256 50.0398 7.28111 48.9855 9.04939 47.9257C10.7861 46.8847 13.3325 45.9296 16.5231 45.1207C22.8967 43.5049 31.7285 42.5 41.5026 42.5C51.2766 42.5 60.1084 43.5049 66.482 45.1207C69.6726 45.9296 72.219 46.8847 73.9557 47.9257C75.724 48.9855 76.5026 50.0398 76.5026 51Z" stroke="#F7F7F7"/>
</svg>
