<svg width="17" height="18" viewBox="0 0 17 18" fill="none" xmlns="http://www.w3.org/2000/svg">
<path d="M5.17766 3.74562C5.17749 4.12759 5.03569 4.49384 4.78348 4.7638C4.53127 5.03376 4.18929 5.18531 3.83279 5.18512C3.47628 5.18493 3.13445 5.03301 2.88249 4.76278C2.63053 4.49255 2.48908 4.12615 2.48926 3.74418C2.48944 3.36221 2.63123 2.99597 2.88344 2.72601C3.13565 2.45605 3.47763 2.3045 3.83413 2.30469C4.19064 2.30488 4.53247 2.4568 4.78443 2.72703C5.03639 2.99725 5.17784 3.36366 5.17766 3.74562ZM5.21799 6.2516H2.52958V15.2674H5.21799V6.2516ZM9.46567 6.2516H6.79071V15.2674H9.43879V10.5362C9.43879 7.90065 12.6447 7.65581 12.6447 10.5362V15.2674H15.2995V9.5569C15.2995 5.11383 10.5545 5.27945 9.43879 7.46138L9.46567 6.2516Z" fill="#F2F2F2"/>
</svg>
